/* XPM */
static char *result[] = {
/* columns rows colors chars-per-pixel */
"50 50 82 1 ",
"  c #3F3851",
". c #6C5765",
"X c #6F5D68",
"o c #715A67",
"O c #745E69",
"+ c #795F6B",
"@ c #76626C",
"# c #7C636D",
"$ c #7F6770",
"% c #7F6970",
"& c #81666F",
"* c #846770",
"= c #836C73",
"- c #8B6D75",
"; c #956B75",
": c #9C6F78",
"> c #847177",
", c #8B7177",
"< c #867479",
"1 c #8D7579",
"2 c #917177",
"3 c #92767A",
"4 c #9B737A",
"5 c #94797C",
"6 c #997B7E",
"7 c #A3737B",
"8 c #A47A7F",
"9 c #A97A7F",
"0 c #4F6DC0",
"q c #957E81",
"w c #9C7F80",
"e c #A27E81",
"r c #AB7D82",
"t c #5987C6",
"y c #6198CC",
"u c #68B8D3",
"i c #978283",
"p c #9D8182",
"a c #9B8887",
"s c #998788",
"d c #9C8A8B",
"f c #9F9293",
"g c #A38384",
"h c #AC8385",
"j c #A78886",
"k c #A88987",
"l c #AE8688",
"z c #A58B8A",
"x c #AD8B89",
"c c #B08787",
"v c #B38D8B",
"b c #B88E8C",
"n c #AD918E",
"m c #B5918D",
"M c #B9938F",
"N c #A19494",
"B c #AA9490",
"V c #A49898",
"C c #B49591",
"Z c #BB9691",
"A c #B49C96",
"S c #BE9993",
"D c #B69E99",
"F c #BF9F98",
"G c #B7A09A",
"H c #BCA29B",
"J c #BDABA5",
"K c #BFAFA9",
"L c #C19691",
"P c #C19B94",
"I c #C19F98",
"U c #C4A39B",
"Y c #CAA59D",
"T c #C7A89F",
"R c #C8A7A0",
"E c #C6AAA1",
"W c #CBACA3",
"Q c #C1B1AB",
"! c #CAB3AA",
"~ c #CDB8AF",
"^ c #CDB9B0",
"/ c #90E3E4",
/* pixels */
"6pwjBBBawzppp6pppggpppg2o2ppgnBBzpzg6pwwggwgpppp6#",
"ZSSPUUUPSUSPPPSSZMMMZSZx#bPSSUUHUZUPZSPSZZMMMMLLv-",
"MZMMMMMMZMMZMZZcChchhZg@#ZZCMMMMMMMZZZZZcmchhgMx&@",
"ZZZZZZZZMZZMMZZMUSUYZZZv%MZZZZMMZZZZZZZZMUSUTUZZM-",
"ZPSZZSSSSSSSZSSSZZSZSSSZ=MPSSSSSSSSSZZLZZZZZZZPZL3",
"hxxxxxxxxxxvmxxxxxxxxxx8o8xxxxxxxxxxmMxxxxxxxxxxh@",
"<<========%OO==>=<<<<==%%><>========@o==>>>11<>==%",
"TYPZZSSSZSP*4PZUIYRRYZZSSTTPZZSSZPZP6*ZZUUUYTTSZSZ",
"MMMZZhlcbv>@jSZMZMMMMMZMZMMMZZchmcZ3@1PMMZMMMMMZZZ",
"ZZZZUZUFCZl#gSMZZZZZSSMMZZMSMUSSUMZv,1SZZZZZZZZZZZ",
"ZZZZZZSZZMI1gPZZZMMZMMMMZZMZZZZSZZMPg1PZZZZZZZZZMZ",
"SSZSSSZSSPL*4PZSSSSSPSPPSSSSZSSSZPLP6*LZSZSSZSSSPS",
"===>==<====XO===========*===>==><>>=@@&=>=========",
"gxxCCHKQHxGCxxxkxxxxxkx6o6xxAnGJQHnACxxxkxxxxxxxr@",
"ZPSPSSSSSSSSZSZPZSSZSSSZ=MSSSSPSSSSSSSZPPZZPZSSZP3",
"ZMMZZZZZSZZZZZZZMSZMMSSv%MSMMSMMMZZZZZZMZZZZZZZZZ,",
"ZZMMZZZZZZZZMZZZM9vvx>=#@ZMMMZZMZZCZZZZZMMhrvv6%%@",
"SPSSSPSSSPSLSPPSPMUUTHmx&MUSSPUSPSPPSSPPSUZPYUTmm-",
"1w666666666ww66656644662.-6666566666ww666666636w1@",
"5551555555,@@31w6aafVNaq655353533533@o236qiadVNdw3",
"SPPZLPPZSZZ-eULUUUUYTTULSSSPSSSPPPPPp,PPUUUYYTTYUP",
"ZZbrrmbbS<%XgZMMm977777777777777rmMPp1PMMMMZMMmMMM",
"ZZZSHmSTPUZ=gPZZr7777        7777cZPg,LMMZZZZZZZMZ",
"ZSSZZSSZZZP1eUZZ9777  /yuuu// 787cZLg1UZZZZZZZSSZZ",
"mxxmxxxmxmx#2xxx7::  /yuuuuu// 4:7vb,@vxxmmxxmmxxM",
"%=%=<<<==>&##==&++#  /0yyyyyuu @@@#=&#===%===%=%#@",
"mZZUTTTUZUZZSZSm777  /0tyyyyuu 779MZZZZZZSSSSSZSZ-",
"ZZZZMMmZZZZMZZZZ9777  /0yyyuu 777hPZZZZZvvcrrgMn,@",
"ZZZZZZZZZZZZZZZZ9:777  /tyyu 7777rZZZMZZmHZSUMMMg#",
"ZMZZZZZZMZZZZZMZ977777  0tu 77777rSMZZZZMZSSSSZMP1",
"mPPPLPSSPSZPSSLM9777777  0 777777rLLSPLLPLSZZPPPL-",
"&>=,=>==->=-=>-&&##&&+&+  #&&#&&##=>>=>=>>>,,>==&o",
"GAjjjkxjjjk#&jjje;;;;;;;;;;;;;;;:ekj*@hjxmBGGGxjkx",
"PSPZLvbMLZj=hPPLZcrrrrrrrrrrrrrhbLLYj,PZSSSSSSSZSZ",
"ZMZZHxZMbm,ogSMMZZZZZZZZZZZZZZvhbve1=1LZZZMMMZZZZZ",
"ZZZMSSUHMZP1pPMMMZZZZZZZZMZZmHZZHbjw&1PZZZZZZMZZZZ",
"ZPPPPZPSPPP1gPPPPPPPPPPPPPPPPUUUUPPYh,PPPPPPSPPPPS",
"www6ww666w4o#wwpwwwwwwwegwww666646w6&o6wwwwwwwwwwg",
",16qqadNa5aq33311111111*.*3365idNd5qw31111111111-.",
"ZPUPUYWWUUUULPPPPPPPPPPm#MPPUUTTWWUUUZPPPPPPPPSPL2",
"ZZZZZMmmMMMMZMCMMZZZZLPZ%CZMMMMMmMMMMZZZZZZZZZSSU2",
"ZMZZZZZZZMZCZZZZZcmvm661@ZZZZZZZZZZZZZZZZZbxmbe66@",
"ZZZZZZZZZZSZZZZZZhZZSa55%ZSZZZZZZZZZZZZZZZcxCSB15#",
"xmmmmmmmmmmMMmmMnmZCCSZh@emmmmmmmmmmMMmmmmMMCZSZb&",
"#=%%=%=%=%#@@=#>%>>><>>%@%=%%=%%%%%%@@#&==>><<<>=@",
"ZZZSZZZZMPZ=3ZMUFUE!^!ESZZZMZSZZZZZI6&MMSHHUW~~EUZ",
"ZZmrrZbvZ11@gSMZZMZZMMMZZZZZhrbZxZp,%1PZZZZZMMMMZZ",
"ZZmZMMZUHBg#gSMZZZZZZZZZZZZMmZmZUUCj*1SMZZZZZSCSZZ",
"ZZZSSZSSZSU1wPZZZZZZZZZSZSZZSSZZSZSUe1LZZZZZZZZZZZ",
"ZZZZZZZZZMZ-6LZZZZZZZZZZZZZZZZZZZZZZw=ZZZZZZZZZSZS"
};
