/* XPM */
static char *bbf401277d214a9de58f2869d0ca4b3ebiwHcVL3hv1m4DNn[] = {
/* columns rows colors chars-per-pixel */
"50 50 166 2 ",
"   c None",
".  c #EE0100",
"X  c #EF0900",
"o  c #EE0C0E",
"O  c #F10300",
"+  c #F20C00",
"@  c #EE1100",
"#  c #EF1B00",
"$  c #F21401",
"%  c #F10814",
"&  c #F11312",
"*  c #F42201",
"=  c #F12E00",
"-  c #F43201",
";  c #F43B00",
":  c #F1252D",
">  c #8A7600",
",  c #8D7900",
"<  c #957600",
"1  c #957A00",
"2  c #AE7E00",
"3  c #B07F00",
"4  c #F44300",
"5  c #F24B00",
"6  c #F84F00",
"7  c #F55500",
"8  c #F64014",
"9  c #F56200",
"0  c #F86800",
"q  c #F76D08",
"w  c #FA7501",
"e  c #F97D00",
"r  c #F65C2D",
"t  c #F45F48",
"y  c #F87B4A",
"u  c #C58700",
"i  c #C58800",
"p  c #D58D00",
"a  c #DD9300",
"s  c #F78300",
"d  c #FA8400",
"f  c #F48C00",
"g  c #FB8B01",
"h  c #E29401",
"j  c #ED9600",
"k  c #EE9C04",
"l  c #F49400",
"z  c #FA9300",
"x  c #F69A00",
"c  c #FA9C00",
"v  c #FC9E11",
"b  c #F5A500",
"n  c #FBA500",
"m  c #F6AB00",
"M  c #FDAC01",
"N  c #F9A50B",
"B  c #F6AC0A",
"V  c #FCAD0C",
"C  c #F7B003",
"Z  c #FDB301",
"A  c #FEBB00",
"S  c #F7B009",
"D  c #FDB30B",
"F  c #FEBB0C",
"G  c #F5AD16",
"H  c #FBAD13",
"J  c #F7B010",
"K  c #FFB214",
"L  c #FFBA15",
"P  c #F7B41E",
"I  c #FDB51B",
"U  c #FFBC1B",
"Y  c #FA9625",
"T  c #F6B426",
"R  c #FFB625",
"E  c #FDBA24",
"W  c #F7B82D",
"Q  c #FDBB2B",
"!  c #F7BA36",
"~  c #FBBC33",
"^  c #F6BA3D",
"/  c #FEBE39",
"(  c #FFC200",
")  c #FFCB01",
"_  c #FEC20D",
"`  c #FFD300",
"'  c #FFD800",
"]  c #FEC314",
"[  c #FFC817",
"{  c #FEC319",
"}  c #FFC81B",
"|  c #FEC423",
" . c #FEC22D",
".. c #FECC2B",
"X. c #FFC233",
"o. c #FECB36",
"O. c #FEC23B",
"+. c #FFD13F",
"@. c #FBA742",
"#. c #FDB846",
"$. c #FCB24B",
"%. c #FCBC5B",
"&. c #FEC444",
"*. c #FFCA43",
"=. c #FEC54B",
"-. c #FFCB4C",
";. c #FAC552",
":. c #FFCB53",
">. c #F7C55D",
",. c #FAC65D",
"<. c #FECC5C",
"1. c #FED051",
"2. c #FFD15B",
"3. c #FFDC5F",
"4. c #FCCC63",
"5. c #F8CB6D",
"6. c #FFD264",
"7. c #FFD36B",
"8. c #FACF72",
"9. c #FED474",
"0. c #FED57B",
"q. c #FFD784",
"w. c #FBD584",
"e. c #FFD880",
"r. c #FFD983",
"t. c #FFDA86",
"y. c #FFDB8B",
"u. c #FFDC8B",
"i. c #FFDB8E",
"p. c #FFDD8F",
"a. c #FDD98C",
"s. c #FFDE95",
"d. c #FCDB94",
"f. c #FFDF99",
"g. c #FFDF9C",
"h. c #FBDC9A",
"j. c #FFE19F",
"k. c #FFE19D",
"l. c #FFE1A2",
"z. c #FEE2A5",
"x. c #FCE0A4",
"c. c #FFE3A9",
"v. c #FFE5AB",
"b. c #FFE4A9",
"n. c #FEE4AC",
"m. c #FBE1AB",
"M. c #FEE7B6",
"N. c #FFE7B5",
"B. c #FDE5B3",
"V. c #FFE7B8",
"C. c #FFEABD",
"Z. c #FEEABF",
"A. c #FCE8BC",
"S. c #FFEBC3",
"D. c #FFECC3",
"F. c #FFECC4",
"G. c #FCEAC4",
"H. c #FEEFCF",
"J. c #FFF0D1",
"K. c #FFF0D2",
"L. c #FEF2D7",
"P. c #FFF3DB",
"I. c #FEF3DD",
"U. c #FEFAEF",
"Y. c #FEFBF4",
"T. c #FEFDFB",
/* pixels */
"                                                                                                    ",
"                                                                                                    ",
"                                                                                                    ",
"                                                                                                    ",
"                                                                                                    ",
"                                                                                                    ",
"                                          f c c c n c c l                                           ",
"                                    z n H R R I M n M M M n n c                                     ",
"                                z N <.z.D.S.M.j.0./ M M M M M M n c                                 ",
"                            x c :.L.Y.L.Z.n.g.i.q.0.~ M M M M M M M n z                             ",
"                          c n 0.T.P.F.M.c.f.y.0.7.4.=.Z Z M M M M M M M c                           ",
"                        c n =.Y.K.S.M.z.s.t.0.7.<.=.X.M M M M M M M M M M c                         ",
"                      c V M z.P.Z.B.l.s.r.9.6.:.=.O.L Z Z Z M Z M Z M M M M c                       ",
"                    z M n M b.F.b.j.p.0.9.6.:.*.X.U Z Z Z Z Z M M Z M M M M M c                     ",
"                  l n M / E :.V.k.u.0.7.6.-.*.X.L Z Z Z Z Z Z Z D D F D V M M n l                   ",
"                  n I z.H.S.=.&.0.0.9.2.-.X.U A Z A A Z Z Z D F U Q ~ Q E K V M n                   ",
"                l H V.K.b.b.0.M F L U L F Z Z A Z A A Z A A L E O.:.2.<.=.Q I D M z                 ",
"                n 0.H.c.j.k.7.Z Z Z A A Z A A A A A Z A M q } o.1.6.7.6.4.-.~ K V n                 ",
"              l K V.n.g.u.t.:.Z D A z z ( ( A A A A A ) c o Y @.>.7.7.7.6.<.=.Q K M l               ",
"              c / M.s.y.9.9.E Z A ' 7 - A c Z ( A ( n ; $ & : t <.7.7.7.7.4.:./ I D c               ",
"              c =.l.q.9.7.*.Z A e ; $ . O 4 A A A A A g * % : $.3.7.7.7.7.7.<.O.E K n               ",
"            l n Q i.9.5.-.D Z Z n 4 . O * ( ( ( ( ( ( ` - 8 r y 6.6.7.7.7.7.<.=.Q K M f             ",
"            l M M &.<.X.D Z Z Z ( M O - $ c ( A ( ( ( A w [ ..#.3.6.7.7.7.7.4.-.Q I M l             ",
"            z n M M Z M Z Z Z Z ( g 0 ) c c ) ( ( ( ( ( ) _ | *.2.7.7.7.7.5.4.-.~ K V z             ",
"            x M M M M M Z Z Z A A A ( A ) ( ( ( ( ) ( ( A _ { o.1.6.7.7.7.7.4.=.Q I M l             ",
"            z M M M Z Z Z Z Z A Z A A A A A ( ( ( ( ( ( ( A F | *.2.7.7.7.6.<.&.Q K M x             ",
"            l m M M M M Z Z Z Z A A A A A ( ( ( ( ( ( ( ( A ( {  .*.2.6.7.6.:.X.I V m z             ",
"            l n b M M Z Z Z Z Z A Z A ( ( A A ( ( ( ( ( A A w _ [ o.*.:.2.-.O.E H b b l             ",
"            l b b b m M Z Z Z Z Z A A n c ) ( ( A ( A ( ) A + e n v |  .X. .I S m b b f             ",
"              x b b b m M Z Z Z Z A ' w * A M Z ( A ( M 6 * O O @ g F D D S B b b b b               ",
"              x m b b b m m Z Z A g 7 * O $ = Z ( A A A g # . . w ) Z Z m m m b b b x               ",
"              l n b b m m m m C Z n 4 . O + M ( A A A A ` 5 # = - A m m m m b b b n l               ",
"                b b b b m m m m C A A @ # X s ( C A A C A 9 b ( f m C C P ! T b b x                 ",
"                l n b b b m m m m Z l 5 A f f A Z A C A C A C C C C S W >.8.>.G b x                 ",
"                  x b b m b m m m C C C C A A C A C C C C C C C m C W 4.w.d.5.J x                   ",
"                  l b b b b m m m m C C m m m C C Z C C m C C C m B ;.a.m.h.=.N l                   ",
"                    x n b b b b b m m m m C C m C C C C S P W  .! ! 4.h.h.>.G x                     ",
"                      x b b b b b m m m m m m m C m S P ! =.>.8.w.0.4.;.^ G x                       ",
"                        x n b b b b b m m m b m m S W &.>.8.w.k.B.B.>.B b x                         ",
"                          j m b b b b b m m m m B W ;.4.0.a.m.A.G.h.W b j                           ",
"                          < p x n b b b b b b b B ! 4.w.h.m.M.m.w.~ N p <                           ",
"                        1 1 > 2 h c n m b b b b b G ^ ,.5.8.,./ H h 2 > 1 1                         ",
"                          1 1 , , 2 p k n n n M b n N V V N k p 2 > , 1 1                           ",
"                              1 1 , > 1 2 u p a h h a p u 3 1 > , < 1                               ",
"                                                                                                    ",
"                                                                                                    ",
"                                                                                                    ",
"                                                                                                    ",
"                                                                                                    ",
"                                                                                                    "
};
