/* XPM */
static char *b6a7e729d7b44aedf393bf2fc6d0f632LIkCWnUeuiyP9h9g[] = {
/* columns rows colors chars-per-pixel */
"50 50 139 2 ",
"   c None",
".  c #151613",
"X  c #1A1C16",
"o  c #182510",
"O  c #202411",
"+  c #232B15",
"@  c #262C1D",
"#  c #2B2F1F",
"$  c #273517",
"%  c #2B301F",
"&  c #2E3320",
"*  c #323622",
"=  c #343923",
"-  c #3B3C25",
";  c #443B26",
":  c #4B3B27",
">  c #593E2A",
",  c #623F2C",
"<  c #3B4127",
"1  c #3C4128",
"2  c #3F4333",
"3  c #424A24",
"4  c #40432C",
"5  c #454D2C",
"6  c #4B542F",
"7  c #424733",
"8  c #454A36",
"9  c #4A4E3C",
"0  c #4D5630",
"q  c #535D33",
"w  c #61402C",
"e  c #634730",
"r  c #7E4230",
"t  c #576135",
"y  c #596436",
"u  c #5F6933",
"i  c #58603C",
"p  c #5F6B39",
"a  c #626D3A",
"s  c #66723C",
"d  c #69753F",
"f  c #6C793F",
"g  c #6E7B41",
"h  c #717E42",
"j  c #814230",
"k  c #8D4432",
"l  c #944533",
"z  c #9E4635",
"x  c #A44736",
"c  c #AF4738",
"v  c #AF4838",
"b  c #B34939",
"n  c #BB4A3A",
"m  c #C34B3C",
"M  c #758444",
"N  c #788746",
"B  c #7B8A47",
"V  c #7D8C48",
"C  c #849743",
"Z  c #869A46",
"A  c #8A9E46",
"S  c #83934B",
"D  c #87994A",
"F  c #8B9D4E",
"G  c #8D9F50",
"H  c #919F54",
"J  c #8DA04C",
"K  c #8FA151",
"L  c #91A453",
"P  c #96A956",
"I  c #99AD56",
"U  c #96A65D",
"Y  c #9CA45E",
"T  c #9BAF58",
"R  c #9EB557",
"E  c #9DB159",
"W  c #A0BA57",
"Q  c #A1B65B",
"!  c #A5BA5C",
"~  c #A9BE5F",
"^  c #82876A",
"/  c #9DA560",
"(  c #99A962",
")  c #9DAC69",
"_  c #A4B460",
"`  c #AABC62",
"'  c #AEB66A",
"]  c #AEB869",
"[  c #B4BC6D",
"{  c #B5B871",
"}  c #A6C05B",
"|  c #AAC15F",
" . c #ACC361",
".. c #B1C763",
"X. c #B5CC65",
"o. c #B7C06F",
"O. c #B8C06F",
"+. c #B8C170",
"@. c #9D9D94",
"#. c #B4BF8E",
"$. c #A1A395",
"%. c #B6BCA2",
"&. c #C4B784",
"*. c #C5BB83",
"=. c #CCB68E",
"-. c #C9BA88",
";. c #CFB791",
":. c #D1B794",
">. c #D3B895",
",. c #D7B79B",
"<. c #D7BA98",
"1. c #C3CCA6",
"2. c #C6CFA9",
"3. c #C7D0AA",
"4. c #C8D1AB",
"5. c #D3DCB5",
"6. c #E7CCA1",
"7. c #ECCDA5",
"8. c #EED1A6",
"9. c #F6D6AC",
"0. c #F7D9AC",
"q. c #F8D8AE",
"w. c #FBDAB0",
"e. c #C6C7C0",
"r. c #C5C6C0",
"t. c #C8C9C3",
"y. c #D7DCC5",
"u. c #E1E6D0",
"i. c #E5E6E2",
"p. c #E8E9E6",
"a. c #EDF1E0",
"s. c #F3F3F2",
"d. c #F2F2F0",
"f. c #F3F4F3",
"g. c #F4F4F2",
"h. c #FBFBFB",
"j. c #FCFDFB",
"k. c #FEFEFE",
"l. c white",
/* pixels */
"                                                                                                    ",
"                                                                                                    ",
"                                                                                                    ",
"                                                                                                    ",
"                            = * = = * = = = = = = = = = = = = = = = = = = = = * =                   ",
"                            * = & & & & % & * % % % % % % % # % % % # # # # # # #                   ",
"                        = = = & y h g g g f g f h B V V V V V V V V V V V V V S f # =               ",
"                        * & = # h I L L L L L L L ~ ..|  . .|  . . . . . . .| X.S # =               ",
"                        : : - & f L F G G F F F F E E Q Q ! Q Q E E E E Q E E ` B # =               ",
"                    & : n b ; # f L G L G F F H G F F T ! ! ! E F G G F G F I  .B & =               ",
"                    * ; b b - & g L D Z D L L F Z G F E ! `  .Q F G F G F F T X.V & =               ",
"                    * : b c ; @ h A #.a.%.3 q y.u.( D E  .D 5 g Q T T Q E Q h q 6 & =               ",
"                    & ; n n ; & h A 1.k.r.X 7 g.k.) D T  .M . 5  .! ! ! ! ..t X # * *               ",
"                    * ; j r - & h D 1.k.r.@ 7 d.k.) D E  .G y M ! Q ! ! W ` N a q & =               ",
"                    = & & & = & h A 2.k.4.@ 7 f.k.) D E ! !  .` ! ` ! ! ! ! ~ X.S # =               ",
"                    = = = = = * g Z 1.k.t.% 9 f.k.) D E ! ! Q ! ! ! ! ! ! ! Q ~ N & =               ",
"                        * = l b e $ $.k.f.i.p.k.j.) D T ! ! ! ! ! ! ! ! ! ! Q  .V # =               ",
"                        * * x m , o @.k.h.k.k.k.k.) Z E ! ! ! ! ! ! ` ! ! ! Q  .B # =               ",
"                        = = z n w o ^ 5.1.3.3.3.3.U F E ! ! ! ! Q ! ! Q ! Q Q  .B # =               ",
"                        * = x m w @ a A C C C C C F F E ` ! ! ! ~ ~ ~ ` ` ~ ~ ..V & =               ",
"                        * = k x w @ s P G K K K K G G P Q Q ! Q L L L L L L L I h & =               ",
"                        = = * * = % p L F G F K G G G G G L  .D & = = * * * * * * = *               ",
"                        = * = = = % s I K F K F F F G G G P  .S @ & * = * = * = = = =               ",
"                                = * 1 q p K F K G T E T E E ` E S V = *                             ",
"                                * = * @ 5 L F F F R ! ! R ! R W | W 1 *                             ",
"                                = * = * 6 K G Y Y [ +.{ o.O.O.o.+.' 1 *                             ",
"                                    = & 6 L L :.>.9.w.w.w.w.q.w.w.8.5 %                             ",
"                                    = & 0 J H =.>.8.q.q.0.0.0.0.q.7.4 *                             ",
"                            = * = = = * 0 K H =.:.8.q.q.0.9.9.q.w.8.4 %                             ",
"                            * * & # # @ 5 L H ;.>.9.w.9.q.q.w.9.q.7.4 *                             ",
"                            = * q d a a g G G ;.:.9.q.9.9.9.9.9.w.7.4 &                             ",
"                            = # S X. . .Q G H ;.;.9.w.q.w.q.q.q.w.7.4 *                             ",
"                            = % N ! E ! E F H =.;.7.9.9.9.9.9.9.9.6.4 &                             ",
"                            = * < - s L F F G L L ] ~ *.<.>.<.-. ._ < *                             ",
"                            * = = @ a I K F J F F R R &.,.>.,.&.W E < *                             ",
"                                = * 5 q a K G E T ! W ] { { { ] ! E < *                             ",
"                                = = & @ 6 K K ! ! ` ` } } ! ! ! ! E < *                             ",
"                                = = = * 6 K K ! ! L G K K P Q Q ` E < *                             ",
"                                    = & 6 K K E ! 5 # = % q L K ! E < *                             ",
"                                    = & 6 K J ` | 5 & = % t L L  .! < *                             ",
"                                    = & 6 L D t q     = % q L B q q                                 ",
"                                    = & 0 I F = %     = % t Q N @ &                                 ",
"                                    = * 5 f s - =     = * 5 g a * =                                 ",
"                                    * = * # &         * = * # &                                     ",
"                                    = * = = =         = * = = =                                     ",
"                                                                                                    ",
"                                                                                                    ",
"                                                                                                    ",
"                                                                                                    ",
"                                                                                                    "
};
