/* XPM */
static char *result[] = {
/* columns rows colors chars-per-pixel */
"50 50 87 1 ",
"  c #202C33",
". c #26333C",
"X c #2C323C",
"o c #293842",
"O c #2C3E4A",
"+ c #353045",
"@ c #313C42",
"# c #2F424F",
"$ c #314553",
"% c #375062",
"& c #3D596E",
"* c #3E5B71",
"= c #705B67",
"- c #735F69",
"; c #795F6B",
": c #4F626D",
"> c #42637C",
", c #636B6B",
"< c #75626A",
"1 c #7C666E",
"2 c #7E6770",
"3 c #7F6971",
"4 c #81666F",
"5 c #836670",
"6 c #836C73",
"7 c #8A6E75",
"8 c #847177",
"9 c #8B7177",
"0 c #867479",
"q c #8E7579",
"w c #92767A",
"e c #9A777C",
"r c #93797C",
"t c #997B7D",
"y c #9E827F",
"u c #4A708D",
"i c #4F7796",
"p c #4F7897",
"a c #4F799A",
"s c #527C9D",
"d c #537EA0",
"f c #853286",
"g c #90338E",
"h c #937D80",
"j c #9C7F80",
"k c #AB7E82",
"l c #64849B",
"z c #5582A4",
"x c #5886A9",
"c c #5A89AE",
"v c #5C8CB2",
"b c #5C8FB8",
"n c #5E90B7",
"m c #5F91B8",
"M c #6492B6",
"N c #6092BA",
"B c #978183",
"V c #9E8282",
"C c #A38483",
"Z c #AD8284",
"A c #A98987",
"S c #A38988",
"D c #AD8B89",
"F c #B28D8B",
"G c #B88E8C",
"H c #AB918E",
"J c #B5918D",
"K c #B9938F",
"L c #A99591",
"P c #B49591",
"I c #BB9691",
"U c #B39C96",
"Y c #BE9993",
"T c #BF9F98",
"R c #C19691",
"E c #C19A94",
"W c #C29F98",
"Q c #C3A39B",
"! c #C8A79E",
"~ c #C7A89F",
"^ c #C6AAA1",
"/ c #CCADA4",
"( c #CBB4AB",
") c #CDB8AF",
"_ c #F2D3AA",
"` c #F8D8AE",
"' c #FFFFFF",
/* pixels */
"eVVSLLLSySHLLLHLLLLLHLLLLLLLLLLLHLLLLLLLLVVVCVyCe1",
"IYYEQEQEEK                              YKIKKKIIG6",
"IKIKKKKDyy  .#OOO#                      tDFKYKJJI-",
"IIKIKIK  X   iiiioooooosvcvccvcvvcvvvv   VTKKEKKI7",
"YYYYYYY      sssaooooo zmmmmmmmmmmmmmN   yYYKYEKRr",
"CDDDCL ggg   sssssssssssssnmmmmmmmmmmmm    KDDDHZ<",
"0936<6 ggg   sss''o ''ssssnnmmmmmmmmmmmmv  68q8663",
"!!YYKK ggf+  sss''@ ''ssssnnnccmmmmmmmvcx$ KKKKKIY",
"KKKKKI ggg+  sss''@ ''sszsmn   nmnNnMm   . ILIKIII",
"KYYIII ggg+  sss''  ''ssssmc   cmmnNmm     IIIIIII",
"IKKKIK ggg+  sss''  ''ssssnn   nmmmmmm     KIKIIII",
"YYYYKY       sss''  ''ssssnnnnnnmmnmmmmnv  IIYYYEI",
"6666<<<      sss''  ''ssssnmnMnmmmnmmmmmv  6366666",
"CAHPHYPKK.ggg  s''  ''ssssnmnnmmmmmmmmmmv  IIIIIII",
"YYEYKKKKK.ggg  >sssspaasssnmmmmmmmmmmmmmv  IIIYYEI",
"KIKKKYYKI.ggg  >ssssszssssnmnmmmmmmMnNmmv  IIIIIII",
"IIIPIIIIIXggg  >ssssssssssnmmmmmnnmmmmmmb  IDIIIII",
"IEEYYRYPIXggg  >ssssssssssmmmnmmnnmmNmNNb  IIIIIJI",
"wetthetrwXggg  >szssssssssssnmm            IIIIIII",
"rrrrrrrrr  .   >sssssssssssscmm      LLBBBBPBBBBBr",
"EEEIREEIIYLLL  >ssssssssssadvmmoo.  LIIIIIIII/IIII",
"IIGIIJGYIRYIIL    isssscvvvvnmmmm% LLIIIIIIIUIIIPI",
"IIITEIY^YWIIIEI   issssmmmmmnmmmm* LIIEIIIIIIIIIII",
"RIIIIYIIIYYRIEIY  isls```````````: LIIIIIIIIIIEIII",
"FFJDDJDJJYIYIYYI  ass````````````` LIIIHFHDFDJFFFJ",
"3636000668311336  ias````````````` 6-263666663662-",
"GIIT^IIIIKIKIKI   psd``_`````````` IIIIIIYIYIYIYII",
"IIIIKIJIKFII      aas``_`````````` IIIIIGFDkZIGIII",
"KIIKIIIIIIK       pas``_`````````` IIIIIGYITQIPPIY",
"YIKKIIIIIF   sssssdas``_`````````` IIPIIIIIIYIIIEI",
"KEEEEEYYEJ   ssssssss````````````` YIYEEEEYYYYYEII",
"6686676686   sssssssas```````````, 61696668878675=",
"UUAAAAAAAkL     sssssssvmm`````Mm& IKKPKIKIIIIIIID",
"EEYYIGGIIPKI    spssssdvmm`````Nm& LKYQRYYYYYYYYYI",
"IKKKTDIPGJJKK  O  sssvvnmmmmmmmmn& IKPYKIIKKIKIIII",
"IIIKKKIKJKIKKJ    pssvnmmmmmnnnmn& IIIYKIIIIKIIIII",
"EEYEYEJIKKKIKKK   issmnnmmmmmvvmn* LIIIYEEEEYYEEEE",
"VtjjjetttBhrhtth  sssmm#....ssznn& qqqqqqqqqqqqqqq",
"7qrththhrBtBwwqr  sssNcO    sssmm* qqqqqqqqqqqqqqq",
"IEWQQ!//!TQQTEEP  sss  .    sss** IITIIIEEEEEEEYR9",
"IIKKKKJJJKJKKKKP  as   YII  sss  IKKKKKKIKKYKKYEEq",
"KKIIIIKIYKYIKYKY  up  IKII  sss IIKYPIIKIIFDGGCte<",
"YIIIIIIYYKYKKYIPK   YKYYYK     CCYIIYIIYYIDFYYHwt2",
"DJJJJJJJJJJJKJKYYP  KYKIIIIY   DJJJJKKJJJJJKKKUIF5",
"63633633421;<66111113311222261111333<;443868800031",
"KKKYIIIIIER6rKJTTQ~(YYYKYKYKIIIIIIIQe4KKTTT!^))^WI",
"IIJkkIFFYq0<CEKIKKIIPYKYYIKIZkFIZYy06qTKKIKKKJKKII",
"IIJIIJYQTHC1CEKIIIIYKYYKKKYKKIKIQTJA50YKYIIIYIYPII",
"IIIYYIITIEWqCYIIIIIIIIYIIIIIEYIITIYQC9EKIIIYIIIIRI",
"IIIKIIKKIKR7tIKKIYIIIIIIIIIIIKKIKKKYt7IKIIIIIIIIIY"
};
