/* XPM */
static char *_d401009c47f4187d361dd3a0c5303a1xdhOiCWlJt1QmkfN[] = {
/* columns rows colors chars-per-pixel */
"50 50 174 2 ",
"   c None",
".  c #5F5562",
"X  c #5F5865",
"o  c #645663",
"O  c #695763",
"+  c #665864",
"@  c #6A5965",
"#  c #655D69",
"$  c #6B5E6A",
"%  c #735B67",
"&  c #745D69",
"*  c #7A5F6A",
"=  c #5C6777",
"-  c #5F6C7C",
";  c #6C616D",
":  c #73626C",
">  c #7D626C",
",  c #676270",
"<  c #6B6774",
"1  c #636876",
"2  c #6B6874",
"3  c #636E7C",
"4  c #6F6C78",
"5  c #726671",
"6  c #7F6670",
"7  c #756A74",
"8  c #796C76",
"9  c #736D78",
"0  c #66707F",
"q  c #73727D",
"w  c #82646E",
"e  c #81686F",
"r  c #89636E",
"t  c #846771",
"y  c #8B6773",
"u  c #856C73",
"i  c #8C6A73",
"p  c #936B73",
"a  c #996F77",
"s  c #9A6F78",
"d  c #877075",
"f  c #8B7276",
"g  c #8C7478",
"h  c #8B797C",
"j  c #937277",
"k  c #9B7177",
"l  c #937479",
"z  c #9C7179",
"x  c #957A7D",
"c  c #9C7B7D",
"v  c #A56F77",
"b  c #A4737B",
"n  c #AA767D",
"m  c #A37A7D",
"M  c #AE7A7E",
"N  c #BB7B7F",
"B  c #9B807F",
"V  c #A2807F",
"C  c #657583",
"Z  c #6A7481",
"A  c #6F7885",
"S  c #777781",
"D  c #797A84",
"F  c #747C88",
"G  c #787D89",
"H  c #8B7F82",
"J  c #9C7E80",
"K  c #A37F81",
"L  c #76808B",
"P  c #78848E",
"I  c #758592",
"U  c #788591",
"Y  c #7E8A94",
"T  c #778D9A",
"R  c #788E9B",
"E  c #7E95A0",
"W  c #9E8482",
"Q  c #818C95",
"!  c #838F98",
"~  c #829099",
"^  c #A48484",
"/  c #AA8484",
"(  c #A48A86",
")  c #AA8987",
"_  c #AC8C89",
"`  c #B28284",
"'  c #BA8383",
"]  c #B18A87",
"[  c #B28E8B",
"{  c #B98D8A",
"}  c #B3928D",
"|  c #BB948E",
" . c #B7988F",
".. c #AD9793",
"X. c #BC9691",
"o. c #B59A91",
"O. c #BE9993",
"+. c #BEA094",
"@. c #BFA69B",
"#. c #BFAA9E",
"$. c #859AA4",
"%. c #8AA1AA",
"&. c #BFABA0",
"*. c #C28585",
"=. c #C98686",
"-. c #C38987",
";. c #C48B88",
":. c #CA8C89",
">. c #D68E8B",
",. c #C8938D",
"<. c #D3948E",
"1. c #C09692",
"2. c #C29B94",
"3. c #CA9F98",
"4. c #D99590",
"5. c #D29991",
"6. c #DC9B93",
"7. c #E79F97",
"8. c #C2A296",
"9. c #CBA296",
"0. c #C6A699",
"q. c #C5A99C",
"w. c #CDAC9D",
"e. c #CDA699",
"r. c #DAA096",
"t. c #D3AC9D",
"y. c #D4B09F",
"u. c #E3AE9F",
"i. c #E7A79B",
"p. c #C1ACA1",
"a. c #CEAFA3",
"s. c #C0B3A9",
"d. c #D1B5A5",
"f. c #DCB2A0",
"g. c #D1BBAB",
"h. c #E5B3A2",
"j. c #ECB6A5",
"k. c #EDBAA6",
"l. c #E3BEAA",
"z. c #ECBEA9",
"x. c #F2B4A3",
"c. c #F4B9A7",
"v. c #D2C2B3",
"b. c #E4C2AB",
"n. c #EDC5AD",
"m. c #EFC9AF",
"M. c #F1C7AE",
"N. c #F8C7AF",
"B. c #F1C9AF",
"V. c #EFCBB1",
"C. c #F2CFB4",
"Z. c #F3CCB2",
"A. c #F9CEB3",
"S. c #FBCEB3",
"D. c #F0CFBA",
"F. c #F7D1B5",
"G. c #F4D1B6",
"H. c #F9D3B7",
"J. c #FAD1B5",
"K. c #FCD3B7",
"L. c #FBD2B6",
"P. c #F5D6BC",
"I. c #FAD5B8",
"U. c #FCD6B9",
"Y. c #F5D9BF",
"T. c #FED9BB",
"R. c #FFDBBC",
"E. c #FFDCBC",
"W. c #FDDABD",
"Q. c #F5DFC5",
"!. c #FADFC5",
"~. c #F5E0C7",
"^. c #FCE1C7",
"/. c #FBE3C8",
/* pixels */
"                                                                                                    ",
"                                                                                                    ",
"                            o O o o o o o o o o + o o o o o o o o o @ o                             ",
"                        O g t.l m y.w.g.d.g.v.t.f / t.w.g.d.g.v.g.9.e  .+.&                         ",
"                    > h a.n.E._ 8.E.F.I.F.I.G.E.( 0.R.A.H.H.H.I.F.U.x b.F.l...t                     ",
"                  % 2.^.Q.G.A./  .I.G.N.N.C.B.F.B O.H.C.C.C.C.A.A.M.d f.F.Y./.V.c                   ",
"                @ 2.^.G.n.u.7.v m 6.5.5.5.5.5.6.j M 6.5.5.5.5.5.<.<.u =.i.l.M.Y.D.c                 ",
"                f m.C.n.u.>.K r @ w > * > > > % @ ; % % * > * * w * @ v =.6.z.B.I.8.@               ",
"              o e.A.C.h.>.z + @ p b b b b K b t O 0 + : b b n b b b w + : *.6.n.m.A.x               ",
"              V n.G.n.6.k o @ & > > * 6 w * > & O 3 ; @ > & % > * > & + o % *.h.V.F.t.6             ",
"              +.K.V.h.=.> @ p a z z z z s s a 6 O 0 ; O % : : : : : : & % o m 4.m.V.A.d             ",
"              O.R.F.x.p o s b ` 2.2.2.2.2.2.{ p o G ; * ` 1.2.2.2.2.1.{ b w o =.N.T.A.d             ",
"              t W B j > o > > u d d d d u f d * O Z $ O u d d d d d d d > % + i x W x :             ",
"              ^ f.w.,.y + + & c ) ) ) ) ) ^ ) ^ w C : m ) ( ) ) ^ ) ) y + ; @ M 9.y.9.6             ",
"              q.E.G.c.p C E 0 l 2.X.X.O.X.O.O.2.f 3 7 | O.O.O.O.O.O.o.: I T , :.I.G.T.h             ",
"              s.W.V.k.p 1 D 7 V O.X.X.X.X.X.X.2.l Z 7 | O.X.X.X.X.O.X.d q S ; =.B.b.~.B             ",
"              #.I.Z.j.p w m / { } } } } { } } ] w G 7 K ] _ _ [ _ [ _ ) J l & ;.A.Z.P.h             ",
"              p.W.M.j.p + $ $ + $ @ + @ @ O $ @ O ! 7 * u u u u u t u d f t @ ;.Z.M.P.H             ",
"              O.H.Z.x.p @ t t t r r t t r r r r % G 9 ` O.X.X.X.O.X.X.X.O.{ 6 *.Z.Z.M.f             ",
"              0.R.H.c.p p K n n K n K K v K K K w F 8 X.O.O.O.O.O.O.O.O.O.2.u ;.S.I.A.h             ",
"              B w.0.{ r * i i p p r p y y p p y % F < s ^ ^ ^ ^ ^ ^ ^ ^ ^ J * K 2.w.2.6             ",
"              u ^ ^ z > * g g g p s g g g g g y % Z ; t H i f f f f d g g t % i c ^ m :             ",
"              +.E.I.c.p c 2.O.O.1.O.O.O.O.1.2.1.y = 5 { 2.O.O.O.2.O.2.O.1.1.t ;.A.I.A.d             ",
"              &.T.m.j.i ^ 2.O.O.O.1.1.O.O.1.{ H 9 $ < d / 2.1.1.O.2.O.2.1.2.u ' A.n.~.H             ",
"              &.T.m.k.p > c J J W c J J c J y 4 $.9 ! Y * x x x x x c J x g % ;.Z.Z.Q.h             ",
"              &.R.m.j.p . o o o o o o o o o o < $.9 U Q % l J x x x x x J j & ;.Z.B.P.h             ",
"              @.K.C.x.p + y s s p k k s k s r < $.9 Y Y j 2.1.1.2.O.2.1.O.1.u ' Z.Z.G.g             ",
"              +.I.G.k.p + k n n n b n b n n p < $.9 U Y i 2.1.O.O.O.O.O.O.X.t *.A.M.C.g             ",
"               .L.m.i.p . & > w w > t > > 6 % < $.9 I Q % d j g g g g j g u % =.z.A.n.u             ",
"              w c x f % y ) ) ^ ^ ^ ( ^ ) / y < $.9 G Q o + @ o + + + O + + + e f x g &             ",
"              _ n.g.6.y ^ 2.X.O.O.O.2.O.X.2._ < $.9 U ! * b b z b s v b b > @ ' y.b.f.u             ",
"              q.E.G.c.y J O.X.X.O.X.X.X.X.1.K < $.9 U Y * b b b b b b b b > o :.S.A.!.g             ",
"              s.R.V.j.p % i d u u u u u u u % , $.9 G ~ @ * 6 6 6 6 6 > 6 : @ ;.Z.B.Q.H             ",
"              #.U.V.j.p > c ^ _ _ [ _ [ _ [ K , G S C G y } [ _ _ _ [ ) c W > -.Z.Z.P.h             ",
"              #.R.V.j.p 2 D 5 / 2.X.X.X.O.X.X.K % 3 , p { X.X.X.X.X.X.i S S $ =.Z.Z.P.h             ",
"              +.H.V.j.p C E 3 l 2.X.O.O.O.O.X.2.p Z 7 X.O.X.O.O.O.O.X.5 I R , ;.Z.M.Z.d             ",
"              8.E.K.c.p X # & J K K [ ) ) ) [ K > A 7 ) ) ) ) ) ) ) ) y o # @ :.J.U.F.d             ",
"              l O. .V w @ > w > w r w > 6 w > % + Z $ w d u d d d u d d d t $ k ]  .[ >             ",
"              l  .} K r y n b n v K K K K v K r + Z 5 ] O.O.O.O.O.O.O.O.O.X.t p ]  ._ >             ",
"              8.E.I.c.p > b s s s s v s s v s 6 + Z 6 X.O.O.O.O.O.O.O.O.O.2.t ;.J.U.I.g             ",
"              s.W.m.j.p . O O O o o o o o o o o + Z : l ^ W W ^ ^ W W ^ ^ c & -.N.m.~.B             ",
"              #.W.V.j.p : l x x x J x x x x J l * 3 # o o o o o o o o o o o @ ;.G.m.P.h             ",
"              { F.m.i.p J 9.2.2.2.2.2.2.2.2.2.2.i 3 # * p s k k p s s s s > + =.k.A.x.d             ",
"              k *.' N w y / ( ^ ^ ) ) ^ ^ ^ ) K > 1 $ % y a p a s p p a p : + v V =.' >             ",
"              + o + + @ o + + o o + o @ @ o + o + @ @ @ + @ o + o @ o + + @ @ + o o + @             ",
"                                                                                                    ",
"                                                                                                    ",
"                                                                                                    ",
"                                                                                                    ",
"                                                                                                    "
};
