/* XPM */
static char *result[] = {
/* columns rows colors chars-per-pixel */
"50 50 111 2 ",
"   c #6E5967",
".  c #6C5C6B",
"X  c #705B67",
"o  c #755C69",
"O  c #7B5E6B",
"+  c #6A606F",
"@  c #7C626D",
"#  c #666776",
"$  c #6A6573",
"%  c #6F6977",
"&  c #646D7D",
"*  c #7B6672",
"=  c #7E6971",
"-  c #736D7B",
";  c #76717D",
":  c #825F6D",
">  c #83626E",
",  c #88646F",
"<  c #846370",
"1  c #8B6371",
"2  c #836C73",
"3  c #8A6D75",
"4  c #816E7A",
"5  c #926572",
"6  c #956972",
"7  c #986874",
"8  c #837177",
"9  c #8A7075",
"0  c #87757A",
"q  c #8B757A",
"w  c #907176",
"e  c #93767A",
"r  c #9B7379",
"t  c #94797C",
"y  c #9B7C7D",
"u  c #A66D7A",
"i  c #AA6F7A",
"p  c #B46F79",
"a  c #A5767D",
"s  c #AD707B",
"d  c #A2787E",
"f  c #A97A7D",
"g  c #B2787E",
"h  c #677181",
"j  c #6C7684",
"k  c #647D8D",
"l  c #717886",
"z  c #767E8A",
"x  c #937D80",
"c  c #9C7F80",
"v  c #AA7E82",
"b  c #B47C82",
"n  c #C87E81",
"m  c #6B8392",
"M  c #7E8892",
"N  c #748C99",
"B  c #79909C",
"V  c #7D96A1",
"C  c #7F98A2",
"Z  c #978183",
"A  c #9E8182",
"S  c #9C8A8A",
"D  c #A78082",
"F  c #AB8385",
"G  c #A88987",
"H  c #AD8788",
"J  c #A48B8A",
"K  c #AD8B89",
"L  c #B28183",
"P  c #BD8182",
"I  c #B28E8B",
"U  c #BD8A8A",
"Y  c #AC918E",
"T  c #B6918D",
"R  c #B9938F",
"E  c #A39696",
"W  c #A99491",
"Q  c #B39692",
"!  c #BB9591",
"~  c #B39C96",
"^  c #BE9993",
"/  c #86A0A8",
"(  c #DC8286",
")  c #C3938E",
"_  c #C39490",
"`  c #C19B94",
"'  c #C99D92",
"]  c #E28989",
"[  c #E6938E",
"{  c #E79791",
"}  c #EA9E95",
"|  c #CCA496",
" . c #C4A29A",
".. c #C7A89F",
"X. c #D5A195",
"o. c #D4A59A",
"O. c #C5A9A0",
"+. c #CBACA3",
"@. c #D5ACA0",
"#. c #CCB6AD",
"$. c #CDB8AF",
"%. c #F2B3A0",
"&. c #F5BBA6",
"*. c #F8C4AA",
"=. c #FBCAAE",
"-. c #FBCEB2",
";. c #FBD1B5",
":. c #F7D5BC",
">. c #F9D5BA",
",. c #FBD9BD",
"<. c #FAE0C4",
/* pixels */
"t D A J W W W J A J x e 3 = @ 2 3 9 q 9 q q 9 @ @ 3 9 9 q q 0 q 0 3 o 2 3 t t y A D A A D A A A y O ",
"! ^ ^ ^  . . .^ K G y v =.) r &.=.=.,.=.<.,.*.) r *.=.=.<.=.<.<.,.&.r ) =.y y J K ! R R R ! ^ ! T 3 ",
"! R ! R R R R K r A @.=.=.| c =.=.=.=.=.=.=.=.X.y =.=.=.=.=.=.=.=.=.y | =.=.o.A r G I v H v R Y = + ",
"! ! ! R ! R T y o.>.<.-.=.' y *.=.=.=.=.=.=.*.| y *.=.=.=.=.=.=.=.*.y ' =.=.<.,.o.D Q  .O.^ R ! R 3 ",
"^ ^ ! ^ ^ K y o.>.-.=.%.} P 7 { } } } } } } } g 6 } } } } } } } } } 6 n } %.=.-.:.o.y G ! ! ^ ^ ` e ",
"D I K K K y t *.-.=.&.] ] p O 7 6 6 6 6 6 6 6 , O 6 6 6 6 6 6 6 6 7 O p ] [ &.=.;.*.y y K K K K F @ ",
"0 0 2 2 2 w X.=.=.&.} ] 6 : o 1 7 7 7 7 7 5 @   $ .   @ 7 6 6 6 7 1 o : 6 ] } &.=.=.X.w 3 q 2 2 2 = ",
"....^ ! K y =.=.-.} ]   X O 7 i s s s s s s 7   $ $   7 s s s p s i 7 O     ] } =.=.=.y Q O.^ ^ ^ ^ ",
"R R R ! , %.=.=.%.[ 6   X                       $ $       X                 6 [ %.=.=.%.2 R ! ! R ! ",
"R ! ! ! 9 =.=.=.} n , @ 7 p b b b b b b b s 1   $ $   O < 3 3 3 3 3 3 3 : O 1 n } =.=.=.9 ! ! ! R R ",
"! ! ! R 3 *.=.*.} 6   7 i g U _ _ _ _ _ _ b 7   $ %   6 U _ _ _ _ _ ) U i 7 X 5 } *.=.*.9 R R R ! R ",
"^ ^ ^ ^ @ ) | ' g , X 7 7 r D D v D D D D d 1   $ %   1 v D D D D D D D 7 7 X 1 P ' | ) @ ^ ^ ^ ^ ` ",
"2 2 2 8 @ ) | | ) :       r D D D D D D D D d 1 % % 1 a v D D D D D D r       , P ' | ) @ 2 2 9 2 2 ",
"D K Y Q 3 *.=.*.{ 7 $ j & r _ _ _ _ _ ) _ _ ) d $ $ d R ) _ _ _ _ _ _ r & j # 6 { =.=.*.9 G G K D @ ",
"^ ^ ^ ^ q ,.=.=.} 6 ; / m 3 ) _ _ _ _ _ _ _ R v $ % D _ _ _ _ _ _ _ ) 9 m C j 6 } =.=.,.q ^ ^ ^ ` e ",
"R ! R ! q <.=.=.} 6 + ; % a _ _ _ _ _ _ _ _ ) v % % D _ _ _ _ _ _ _ _ a % ; @ 6 } =.=.<.q ! ! ! R 9 ",
"! R ! ! 9 =.=.=.} 6 7 _ _ _ _ _ _ _ _ _ _ _ U 7 - ; 6 U _ _ _ _ _ _ _ _ _ _ 7 6 } =.=.=.9 I t = 2 o ",
"^ ` ` ` q <.=.=.} 7                             ; ;               X         X 5 } =.=.<.q  ...T T 8 ",
"e y y x 9 =.=.=.} 6 o < > : < > > > > > < < : o - - u U _ _ _ _ _ _ _ _ _ _ r 6 } =.=.=.9 e y c e o ",
"t e e e 9 =.=.=.} 6 1 s p i i p i s s s s i u 1 - - v _ _ _ _ _ _ _ _ _ _ _ v 6 } =.=.=.9 E E S Z t ",
"^  .^ ^ 3 *.=.*.} 6 5 s u i s i s s i i s s i 5 - - d ) _ _ _ _ _ _ _ _ _ _ d 6 } *.=.*.3 +..... .` ",
"R R I D O y y y 6 O o < < < < < > > > > > > : o % % O 1 3 3 3 3 3 3 3 3 3 3 O O 6 y d y @ T T R R R ",
"R ! R ` @ ) X.' b 1 1 v D D D v v D D D v D d 1 $ % 1 d D D v D D D D D D D 1 > ) ' | ) @ R ! ! R R ",
"^ ! ^ ^ 3 *.=.*.} 5 c _ _ _ _ _ _ _ _ _ _ _ R a + $ d ! _ _ _ _ _ _ _ _ _ _ d 6 [ *.=.&.3 ^ ^ ! ^ R ",
"T K T K 0 <.=.=.} 6 D _ _ _ _ _ _ _ _ _ _ P 7         7 _ _ _ _ _ _ _ _ _ _ v 6 } =.=.<.0 T T K T T ",
"= 2 = 8 0 <.=.=.} 6 7 _ _ _ _ _ _ _ _ _ _ a ; / M M / ; b _ _ _ _ _ _ _ _ _ 7 6 } =.=.<.q = = 2 = X ",
"T ^ ! ` q ;.=.=.} 6   X                     % B M l C ; < 3 3 3 3 3 3 3 3 3 @ 6 } =.=.;.9 ^ ^ ^ R 2 ",
"R R ! ! q ,.=.=.} 6   @ < : < : < : < : < o % B M j C ; b _ _ _ _ _ _ _ _ _ r 7 } =.=.,.q D R Y 9 * ",
"! R R R 9 =.=.=.} 6   7 s s s s u s s s i 1 - B M l C ; _ _ _ _ _ _ _ _ ) ) D 6 } =.=.=.9 R R R D @ ",
"! R ^ R 9 =.=.=.} 6   7 s s s i s s s s s 1 % B M l C ; b _ _ _ _ _ _ _ _ ) r 6 } =.=.=.9 ^ R R ` e ",
"R  .` ` 3 &.=.*.{ 6   o > > > > > > < > > o % B M l C ; > 3 3 3 3 3 3 3 3 3 O 6 [ *.=.&.3 ^ ^ ` ^ 3 ",
"2 2 2 9 X r y y 6 O 1 D D v D D v D v v D 1 % B M l C ;             X         @ 6 y y y X 9 2 2 2 X ",
"~ ~ G G > %.=.*.[ 6 D ) ) _ _ _ _ _ _ _ _ v % B M l C ; 7 i i s s s s s s 5 X 7 [ &.=.%.> ~ K G G K ",
"^ ` ^ ^ 9 =.=.=.} 6 D ) ) _ _ _ _ ^ _ _ ! v % B M l C ; s i p i s s s s s i . 7 } -.=.=.9 ^ ^ ^ ^ ^ ",
"! ! R R e <.=.=.} 6 , D D D D D v v v v v 1 % N M l C ; < 7 7 6 7 7 7 7 6 <   6 } =.=.<.q ! ! ! ! R ",
"! R R R 0 ,.=.=.} 6 @ 2 3 9 3 3 3 3 3 3 3 * % N M j C ; < 3 3 3 3 3 3 3 3 3 < 6 } =.=.,.q ! Q ! R R ",
"^  .^ ^ 0 ;.=.=.} 6 1 D D U _ _ _ _ _ _ ) v * h z # z 4 U ) _ _ _ _ _ U v v e 5 } =.=.;.0 ` ` ` ` ` ",
"y y c y q ;.=.=.} 5 - M l r _ _ _ _ _ _ ) R b 1 $ $ 3 b _ ) _ _ _ _ _ r j M - 6 } =.=.;.0 y c c Z D ",
"9 e t x 9 =.=.=.} 6 h B k 3 _ _ _ _ _ _ _ _ ) v $ $ v ) _ _ _ _ _ _ _ 3 k N h 6 } =.=.=.3 e e q 3 X ",
"^ ` `  .9 =.=.=.} 6 + % $ a _ _ _ _ _ _ _ _ ) r % % v ! _ _ _ _ _ _ _ v $ % $ 6 } =.=.=.3 ` ` ` ` 9 ",
"! ! T ! 3 &.=.*.{ 6       < 3 3 3 3 3 3 3 3 1 @ % $ = 3 3 3 3 3 3 3 3 <   X   6 { *.=.&., R ^ ^ ` e ",
"! ! ! !             < s s s s s s s s s b u >   $ $ 7 U _ _ _ _ _ _ _ _ _ _ 5             T D t t @ ",
"! ! ! ! 3 %.=.&.[ 6 7 s s s s s p i i i i i 7   % % v _ _ _ _ _ _ _ _ _ _ _ v 6 [ *.=.%.3 ^ W q t @ ",
"K T T T 9 -.=.=.} 6 @ 7 7 7 7 7 7 7 7 7 7 5 O   $ $ d _ _ _ _ _ _ _ _ _ _ _ d 6 } =.=.;.9 Q ^ ! I 2 ",
"= = = 2 q <.=.=.} 6                             $ $ 1 v D D D v D D D D D D , 6 } =.=.<.q 0 0 8 = @ ",
"! ! ! ! 9 ,.=.=.} 6 @ 3 3 3 3 3 3 3 3 3 3 3 < O $ $             X           X 6 } =.=.,.q $.$.O. .! ",
"! ! T D 3 &.=.&.{ 6 a _ _ _ _ _ _ _ _ _ _ _ ! v $ +   > 7 7 7 7 7 7 7 7 7 7   6 { *.=.&.2 R R R ! ! ",
"! ! R ! > } } } ( 5 r _ _ _ _ _ _ _ _ _ _ _ U 7 # $   1 s s s i s s s s s 7   5 ( } } { , ! ! ! ! R ",
"! ! ! ^ X 6 6 6 5 O O 3 3 3 3 3 3 3 3 3 3 3 3 O   .   o < : < : > > > > > O   O , 7 5 5 o R ! ! ! ! ",
"! ! ! !                                                                             X X   ^ ^ R ^ ! "
};
