/* XPM */
static char *_067fa84b37d4b839774132820b3ee17y9ipzNrnGEyR5xk8[] = {
/* columns rows colors chars-per-pixel */
"50 50 112 2 ",
"   c #6C5765",
".  c #665864",
"X  c #6A5A66",
"o  c #6F5C68",
"O  c #715A67",
"+  c #745E69",
"@  c #795F6B",
"#  c #76626C",
"$  c #7C636D",
"%  c #7F6770",
"&  c #7F6970",
"*  c #81646E",
"=  c #846670",
"-  c #8A6773",
";  c #836C73",
":  c #8B6C75",
">  c #956B75",
",  c #996E77",
"<  c #9B6F78",
"1  c #847177",
"2  c #8B7177",
"3  c #867479",
"4  c #8D7579",
"5  c #92767A",
"6  c #9C727A",
"7  c #94797C",
"8  c #997B7E",
"9  c #A3737B",
"0  c #A47A7F",
"q  c #A97A7F",
"w  c #957E81",
"e  c #9C7F80",
"r  c #A27E81",
"t  c #AB7D82",
"y  c #978283",
"u  c #9D8182",
"i  c #9B8887",
"p  c #998788",
"a  c #9C8A8B",
"s  c #9F9293",
"d  c #A38384",
"f  c #AC8385",
"g  c #A78886",
"h  c #A88987",
"j  c #AE8688",
"k  c #A58B8A",
"l  c #AD8B89",
"z  c #B08787",
"x  c #B38D8B",
"c  c #B88E8C",
"v  c #AD918E",
"b  c #B5918D",
"n  c #B9938F",
"m  c #A19494",
"M  c #AA9490",
"N  c #A49898",
"B  c #B49591",
"V  c #B99590",
"C  c #BA9490",
"Z  c #BA9690",
"A  c #BB9791",
"S  c #BB9792",
"D  c #BC9490",
"F  c #BE9591",
"G  c #BD9791",
"H  c #B49A95",
"J  c #B39C96",
"K  c #BC9993",
"L  c #BF9893",
"P  c #BD9A95",
"I  c #BE9B95",
"U  c #BF9C95",
"Y  c #BE9D97",
"T  c #B49D98",
"R  c #B79F99",
"E  c #B7A09A",
"W  c #B9A29B",
"Q  c #BFA19A",
"!  c #B9A39D",
"~  c #BDAAA4",
"^  c #BFAFA9",
"/  c #C09691",
"(  c #C19691",
")  c #C09993",
"_  c #C19993",
"`  c #C09B94",
"'  c #C19B94",
"]  c #C39C95",
"[  c #C09D96",
"{  c #C59C95",
"}  c #C59E96",
"|  c #C09F98",
" . c #C29F98",
".. c #C2A098",
"X. c #C3A199",
"o. c #C2A29B",
"O. c #C2A39B",
"+. c #C4A39B",
"@. c #C4A79E",
"#. c #C6A69E",
"$. c #C6A79E",
"%. c #CAA59D",
"&. c #C7A89F",
"*. c #C7A99F",
"=. c #C8A7A0",
"-. c #C5A9A0",
";. c #C6AAA1",
":. c #CBACA3",
">. c #C1B1AB",
",. c #CAB3AA",
"<. c #CDB8AF",
"1. c #CDB9B0",
/* pixels */
"8 u u k M M M k e k u u u u u u u d d u u u d 5 + > u u d v M M M 8 k d u u u u u u d u d u u d 8 @ ",
"D L D ' .. ...I I ..' / L L L L n n n n D _ Z j & b I I I ....Q  .C [ ' ' D L L D D C C b n n I b : ",
"Z Z Z n Z n n n Z C Z C C Z D j b f z f f n d # # B D n A n n n C C C Z Z C Z Z x c x t f f b b & # ",
"Z Z Z C Z Z Z Z n Z C Z n Z Z C ..I #.#.A n A x % n n A n n D n Z Z Z Z Z Z Z C C  .I o.&.[ n n n : ",
"L L L L D I ) L I L Z D L L ) ' D I D D L L L n ; n L L L L A U L Z ) L D Z L ) C D D ' C I _ D _ 4 ",
"d l l l l l l l l l l b M l l l l l l l l l v 0 + 0 l l l l l l l l l l b b l l l l l l l f l v f $ ",
"3 3 ; % ; ; ; ; ; ; = + @ ; ; ; ; 3 3 3 3 ; & & & 1 3 1 ; ; ; ; ; ; ; ; + + % ; 3 1 1 3 3 3 1 ; & & ",
";.#.L L Z L I D D L / - 5 ) D  .[ &.=.&.&.L L A U &.&.U A A L L L D Z { 8 ; D D [  .+.=.=.=.U D L L ",
"n C n n Z f j x x b ; # d I n Z n n n n n n A n Z n n A n A z f c f D 7 # 4 ' C C C C n Z n Z Z Z n ",
"n / D Z o.Z o.U C n g $ d ) Z Z A A n A A A n A n A n A n Q L U -.b Z x : 4 I Z Z Z Z Z Z D Z Z n D ",
"Z n Z Z C Z L Z Z Z } 4 d ' C Z n A n A n A L n A A n A n A A A D D C { g : ' Z Z C Z C Z Z C Z A n ",
"/ I / I L L L L I I D - 8 ' D I L L L L L L / / L L L L L L L L D I D ' 8 ; D U D L L L L L L L I U ",
"; ; 1 ; 1 ; ; 3 ; ; ; O @ ; ; ; ; ; ; 1 1 1 ; ; ; ; ; 1 1 1 ; 1 ; ; ; ; #   ; ; ; ; ; ; ; ; ; ; ; ; ",
"d l b M B W ^ >.! l R H l l l l l h h j h h l 8 o 8 l l B v E ~ >.~ B H T l l l l l l l h l l l t # ",
"L L L L L ' I I [ D ' D D I D D G G L L L L _ n ; n A L P L L U I ' I ' ' D D L L L L Z I L D I ' 4 ",
"n Z n Z n Z n n Z Z Z Z Z Z Z Z A A A A n D _ x * b A A n A n n C Z C Z Z Z Z Z Z Z Z Z Z Z D D D 2 ",
"Z C C C C C C Z C C C C C C Z Z n q x z x ; ; $ # L n A n n n n Z Z Z C Z C Z Z C Z f t x z 5 % ; + ",
"D ' ' ' I ' ' ' I ' ' I ' ' ' ' ` n +.X.*.Q b f & n ` L U U ` ` ' ' I ) ' I ' ' L ' I ' -.%.;.b x ; ",
"5 e e w 8 7 8 8 e 5 e e e 7 e 5 8 8 8 8 7 8 u : X : 8 8 8 8 8 8 e 7 e 8 e e e 8 7 8 w 6 e 5 7 e 7 + ",
"5 5 5 5 7 5 5 7 5 7 5 O @ 5 5 y 7 u i s N m i 8 8 7 7 7 5 7 7 7 5 4 5 5 @ O : 5 w w y a a N m a e 7 ",
"' ' ' D D ' ' ' ' Z C : e } '  .X.+.X.%.:.&.X.{ L _ _ _ L L L L ' ' ' } r : { I } }  .-.%.=.:.%. .I ",
"C Z x t t B x x I 2 % o d ) C C n q 9 9 9 9 9 9 9 9 9 9 0 9 0 9 f C n C e 2 ' Z C Z C Z c C x C C C ",
"Z Z Z  .U Z U ;.Y  .Z ; d ) Z Z f 6 9 9 9 9 9 9 9 9 9 9 9 9 9 6 9 z Z ' d 2 ' Z Z Z C Z Z Z Z Z Z C ",
"L D L Z D I Z D D D } 4 d ' Z D q 9 9 9 9 6 - $ * * $ > 9 9 9 9 9 t I  .u 4 } Z ) C L Z D ) L S D Z ",
"x l x l x l x v x l x % : x b h 6 , < , < * X . X . . X : 6 6 , < 9 j x : $ l x x x l B l B l x x b ",
"& ; ; ; 3 3 3 ; ; ; & & % ; ; % @ $ $ @ O X X X X X X X X + + $ @ @ % ; & $ & ; & & ; % ; & ; ; % + ",
"b L Z Y ;.-.;. .Z o.' D Z Z C x q 9 9 , O X X X X X X X . $ < 9 9 r C D L D L Z I I Z ) ' S Z L D ; ",
"S Z Z C n C C Z C C C Z Z Z Z L q 9 9 9 ; . X   X X X .   : 9 9 9 f L Z Z Z Z Z x x j t f t C h 2 # ",
"C Z C Z Z Z Z D Z Z Z Z C Z Z Z 0 9 9 9 9 , , - O - , , , 9 9 9 9 t D C Z Z Z D b I I U #.C b Z d $ ",
"Z C Z Z C Z Z Z Z D Z Z Z C C D 0 9 9 9 9 9 9 9 @ 9 9 9 9 9 9 9 9 t I C C Z Z Z C C Z I Z L Z Z } 5 ",
"C ' ' ' ' [ / ' ' ' ' [ _ D _ / t 9 9 9 9 9 q , @ , 9 9 9 9 9 9 9 t L ' ' D ' ' L ' I C L L ' ' D : ",
"; ; ; : ; ; ; ; ; : ; ; ; ; ; = * @ * @ * @ $ + X @ * * * $ $ $ $ $ ; 4 ; ; ; ; ; 1 2 ; 3 : ; ; ;   ",
"T H h h h l h l h h j @ = h h h r > > > > > > > < > > > > > > > < r l d ; @ f d v v v T T T l g l l ",
"' ' L L ' x c c D Z d ; d } D ' D j t t t t t t t t t t t t t t c L { %.d 4 ' L D ' I I [ _ / I I D ",
"C C C Z Y l Z C x c 2 + d L Z Z C Z L D D Z Z Z Z L D Z C S c f x x d 4 ; 2 / n C Z C Z Z Z Z Z Z C ",
"C B Z C I I Q I C Z [ 2 u L C Z C C C C Z C Z Z C C C C Z I C B  .x d e = 4 L C Z C Z C C Z Z Z C Z ",
"I ' ' ' ' ) / ' ' I { 4 d { ' ' ' ' ) ' ' ' ' I I ' ' ' ' ' '  . .{ } %.d : { ) ' L ' ' I ' ' ' I / ",
"e e e 8 e 8 8 8 8 u 6 O $ e e e e e e e e e e u d e e e e e e e < e 8 8 = + e u e e e e 8 e e e e d ",
": 4 5 w w p s m p 4 p w 5 4 5 4 4 4 5 4 4 4 5 =   = 5 5 w w y a s a 7 y e 5 4 4 5 4 4 4 4 4 4 5 : o ",
"D '  .+.} =.:.:.=.} #.} / ' ' ' ' ) ) ' ' ' ' c % x  .'  .} -.:.,.=. .-.+./ ) ' ' _ _ ' ' L ' ' ' 2 ",
"C Z C C C n n b C n b C Z Z B C Z Z Z Z S L I C % B Z C C Z c Z x b C Z C B Z Z Z C C Z Z L L L  .4 ",
"Z C Z Z C Z Z Z Z Z Z Z Z C C Z C j c x x e e 2 # C L Z C Z Z Z C Z C Z C Z Z Z C Z x x x x d w 6 @ ",
"Z Z I Z Z D Z Z Z Z L Z Z Z Z D Z f S C I p 5 5 % C Z Z Z C Z S L L Z Z Z Z Z Z D ' z x I Z k 7 w % ",
"j C x b b b b B b b b C Z b b c x B Z B C I Z f + r B x b Z x Z b b b x C Z b b x b b Z B Z I Z x = ",
"% % & ; ; % % ; ; % % @ # % & ; ; ; ; 1 3 1 1 % $ % & ; & ; & & % & & & # # & = ; ; ; ; 1 3 3 = ; # ",
"Z Z Z I Z Z Z D B I C ; 5 D Z  .I -.;.,.1.,.;.I Z Z Z Z Z L Z Z Z Z L  .6 = Z B T Y o.;.;.1.1.^  .C ",
"D C x f t Z x x Z 4 2 # d I Z Z C C C C C Z C C Z Z Z C f t c C j L u 2 = 4 ' Z D Z Z C C C C Z C Z ",
"Z Z b C C C D -.' M r % d I Z Z Z Z C Z Z Z Z S C Z Z C C S x S  .o.M g = 4 ' Z Z Z Z D Z Z C Z Z C ",
"Z Z Z I L C S I Z I } 4 d I Z D Z D S Z S Z Z S C Z S C L I Z Z I Z I } d 4 ' C Z Z Z Z D Z Z S Z S ",
"Z D Z Z Z Z Z C C C D : 8 D Z Z L Z Z Z Z L S C L Z C Z C C Z C Z Z Z D 8 : D Z Z Z ) C Z S C L L C "
};
