/* XPM */
static char *result[] = {
/* columns rows colors chars-per-pixel */
"50 50 94 2 ",
"   c #1C2C34",
".  c #22333D",
"X  c #2B323E",
"o  c #392F48",
"O  c #243843",
"+  c #2E3C43",
"@  c #263E4B",
"#  c #303042",
"$  c #294452",
"%  c #2E5164",
"&  c #335A71",
"*  c #36647D",
"=  c #765D69",
"-  c #7B5E6B",
";  c #49636E",
":  c #616B6B",
">  c #766168",
",  c #7B626C",
"<  c #82666F",
"1  c #836770",
"2  c #8B6671",
"3  c #866A72",
"4  c #8A6D74",
"5  c #916E76",
"6  c #877077",
"7  c #887077",
"8  c #8A7379",
"9  c #907077",
"0  c #947479",
"q  c #99767B",
"w  c #96797D",
"e  c #9D7B7D",
"r  c #A2757C",
"t  c #A27A7D",
"y  c #A4817E",
"u  c #3D7494",
"i  c #3E7798",
"p  c #3F799B",
"a  c #3F7CA0",
"s  c #407B9E",
"d  c #417DA0",
"f  c #92278A",
"g  c #9F2692",
"h  c #987C80",
"j  c #A47F80",
"k  c #AC7F82",
"l  c #B57D81",
"z  c #59859D",
"x  c #4383A7",
"c  c #4587AC",
"v  c #478BB3",
"b  c #488DB5",
"n  c #498FB8",
"m  c #4791BD",
"M  c #4B92BC",
"N  c #5293BA",
"B  c #9C8083",
"V  c #A68181",
"C  c #AC8484",
"Z  c #A58887",
"A  c #A98887",
"S  c #A98988",
"D  c #B48586",
"F  c #B28887",
"G  c #B68788",
"H  c #BB8788",
"J  c #B58B89",
"K  c #BB8D8B",
"L  c #AD928F",
"P  c #B2928F",
"I  c #BE918E",
"U  c #AE9490",
"Y  c #BA9490",
"T  c #B99B95",
"R  c #C18E8C",
"E  c #C2938F",
"W  c #C9948F",
"Q  c #C49590",
"!  c #C99791",
"~  c #C69A94",
"^  c #CA9993",
"/  c #C79F9A",
"(  c #CA9F98",
")  c #D09D95",
"_  c #CCA59C",
"`  c #CCA89E",
"'  c #D0A59C",
"]  c #CDABA1",
"[  c #D3ACA2",
"{  c #CFB0A6",
"}  c #D2B6AD",
"|  c #F9D2A4",
" . c #FFD7A8",
".. c #FFFFFF",
/* pixels */
"- t j j V k V j y L U U U U L U U U U U P U U U U U U U U U U U U U U U U U U U Z V S U L L A y y t ",
"4 R Q ! Q R W E W Q                                                             Q Q ^ ( ^ _ ^ Q ! E ",
"- E H K Q E E H F t                                             @ @ @ @ @ .     e y F E E E E E E E ",
"5 E Q E ~ E Q ~ y       n b v b v b b b b v b v b b x . O O O . O p p p i       X     E E E E I E E ",
"0 ^ E W Q E E ! y       M M M M M M M M M M M M M M x   O . . O O p a d s             Q Q ^ W Q ! Q ",
"< D J G G G E         M M M M M M M M M M M M n x s s s x x x x d d d d s       g g g   U y J J J k ",
"1 3 4 4 8 7 4     M M M M M M M M M M M M M M M s s s x ....  X ....d d s       g g g   4 > 4 4 8 8 ",
"Q W E E E E E   $ c b M M M M M M M M b v v M M x s s s ....  + ....d d d     o f g g   E E W Q _ ' ",
"E E Q E E U E   .       M M M M M M n       n M s s s s ....  X ....d d d     o g g g   E E E E E E ",
"E E E Q Q E E           M M M M M M v       n M s s x s ....    ....d d s     o g g g   E E E Q W Q ",
"E E E E I E E           M M M M M M n       n M x s s s ....    ....d d d     # g g g   E W E E E E ",
"! ^ Q Q W E E     n M M M M M M M M M n M n M M s s x s ....    ....d d d               E E Q W Q W ",
"3 4 4 4 4 3 4     n M M M M M M M M M M M M M M d d d d ....    ....d d s             > > > 7 4 4 4 ",
"E E E E E E E     n M M M M M M M M M M M M M m d d d d ....    ....d     g g g . E E E E L I P F k ",
"Q ^ Q Q W E E     v M M M M M M M M M N M M M m d d p p p p s s s s *     g g g X E E E E E Q Q W Q ",
"Y Q Q W E I E     n M M M M M M M M M M M M M M d d x p x s s x p x *     g g g X E E E E Q Q E I Q ",
"Y Q Q Q Q D E     M M M M m M M M M M M M M M M s x s s x s s x s x *     g g g X E E E E E I E E Q ",
"Q I Q Y Q Q E     M M M M M m M M M M M M M M M s s s x s s s s s x *     g g g X E E W ^ ! ^ ^ ^ Q ",
"E Q Q Q Y Q Q                         M M m s x s x s s x s s s s s *     g g g . q q e y w e y e q ",
"h h B V h h Q h B B B U U             M M v s p s s s s s s s x s x *       .     q q q 0 q q q 0 q ",
"Q E E E ] Q E E Q Y Q Q Q U     . . O M M n x p s x s s s x s s s s *     L U U Q Q Q ^ ^ W W ^ ^ ! ",
"E E Q Q Q E Q Q Q Q Q Q Q U U   % M M M M M n n v b c x s s s s         U ! Q Q Q Q Q K R Q Q K Q Q ",
"E E E Q Q Q Q Q Q Q I ! Y Q U   & m M M m m M M M M M s s s s s       Q Q Q Q W _ Q ` ! E ~ ^ I Q Q ",
"Q Q Q Q Q Q Q Q Q Q Q Q Q Q U   ;  . . . . . . . . . . .s z s s     ! Q Q ! Q Q E Q E W Q Q Q ! Q Q ",
"I K K K K J K K H J J Q Q Q U    . . . . . . . . . . . . .s p i     E W E Q E Q W K H J K J H K H J ",
"= 1 3 3 3 3 3 3 4 4 4 3 , = 1    . . . . . . . . . . . . .x x i     3 3 4 1 < 1 6 3 7 8 6 8 4 1 3 3 ",
"E W Q Q Q Q Q Q Q Q Q Q Q Q Q    . . . . . . . . . .|  . .s p i       E E E E E E E E E E ` ( E Q K ",
"E E E R Q l l H H H Q Q Q Q Q    . . . . . . . . . .|  . .x p i             E E J E E E E E E E Q Q ",
"E E E E Y / ~ Q ~ K Q Y Y ~ Q    . . . . . . . . . .|  . .x p p               E E E Q Q Q Q Q E E E ",
"Q ^ E E ~ ~ Q Q Q Q Q Q Q Q Q    . . . . . . . . . .|  . .s p s d d s x p       K E E E E E E E E Q ",
"Q Q ! ! ! Q ! ! ! ! ! ^ Q Q Q    . . . . . . . . . . . . .d d d p d d d x       I ! ! ! ! ! ! Q ^ E ",
"= 2 4 4 7 4 7 7 4 4 4 4 4 , 7   :  . . . . . . . . . . .d p d d x s d d s       4 4 4 4 4 4 4 4 4 4 ",
"G I Q I E E E E E E E E E E E   & m N  . . . . .m m n d s s s s x s           L V D D S F C C F T T ",
"Q ! Q ~ ~ ^ ~ Q ^ Q ! ^ E Y U   & M N  . . . . .M m n d x s s s s s         I E I W R R R W ! ! ! ! ",
"E E Q E E E R Q Q E E ! E E E   & M M M m M M M M M M n v s s s     +     R E E I K I E G / I Q E E ",
"E E E E E E E Q E E I ~ I E E   & M M m m M M M M M M M n s s s         E E I E I I E E E E I E I E ",
"! ^ ! ^ ^ ! ! ^ ! ! ! Y Q I U   & M M n b n n n M M m M M s d s       I E E E E E E E E W ^ ^ ^ ^ ^ ",
"9 h 0 0 0 0 0 0 0 0 0 0 0 0 0   & M M x d a O O . O $ m M s d d     h e e h h h t t e t t t t t V V ",
"9 0 0 0 0 0 0 0 0 0 0 0 0 0 0   & M n d d d         @ v M d d d     w 0 0 0 h e e h h h h e w w 0 4 ",
"5 ! ! ^ ^ ! ^ ^ ^ ^ Q Q Q ~ Q Q   & & d d d         #     d d d     Q ! ^ ! ( ' ( _ [ [ _ ) ( ( ! W ",
"q ^ Q Q Q Q Q Q Q Q Q Q Q K I E Q     d d d     Q Q Q       d d     Q I I E E I E R I I I E E E I Q ",
", r h k R K H H Q E Q Q E Q Q Q Q Q   d d a     E E Q E     u u     Q Q E E E Q E E W E E E E E E Q ",
"1 e 0 L Q ~ H H Q Q Q Q W Q E E Q C C           Q Q Q Q Q Q       Q Q E W E E W E E E E E W E E E Q ",
"2 R Q ~ I Y Q J K K J K I I K K I K J       Q Q Q E E Q E Q     Q Y Q Q J I I K I I I K I K I K I D ",
"- 3 4 8 8 8 7 4 4 3 3 1 , - 1 3 3 1 1 1 1 1 < 1 1 1 1 1 8 1 1 - < < < 3 < < - < 1 1 1 3 1 3 3 3 4 1 ",
"E ( ] } } ] _ ( ~ ~ E R < r ^ Q Q Q E E Q E E Q E Q E E Q E { ] _ ~ / I E q 2 W ! Q Q Q E Q Q I I E ",
"Q Q I K R E E E Q Q E ^ 0 3 9 t ! l E K l l E E Q Q E E Q Q E Q E E E E ! C , 0 0 Q H R E l y W W E ",
"E Q Q Q Q Q E Q Q Y Q ^ 9 2 F Y / / Q R Q I E Q E E Q Q E Q Q Q E E E E ^ V < t P / _ Q R E E R Q E ",
"Q Q Q Q E Y Q E Q E E ! 0 k ^ ! Q ~ Q Q ~ Q E E Q E Q Q E Q Q E E Q Q E ! V 0 ) ! E ! Q Q Q ! Q Y Q ",
"Q Q Q Q Q Q E Q Q E Q E 2 j ! E Q E E E E E Q E Q E E Q Q Q Q E Q Q E E Q t 5 E E E E E Q Q I Q Q E "
};
