/* XPM */
static char *result[] = {
/* columns rows colors chars-per-pixel */
"50 50 102 2 ",
"   c #6E5967",
".  c #6F5B69",
"X  c #705A67",
"o  c #735D69",
"O  c #7A5E6A",
"+  c #7C646D",
"@  c #7E6770",
"#  c #7E6870",
"$  c #81616D",
"%  c #8B646F",
"&  c #866770",
"*  c #8E6671",
"=  c #836C73",
"-  c #8A6D74",
";  c #906771",
":  c #916D74",
">  c #9C6C75",
",  c #837177",
"<  c #8A7076",
"1  c #87747A",
"2  c #8F7579",
"3  c #93767A",
"4  c #9F7479",
"5  c #947A7D",
"6  c #9A7B7E",
"7  c #A26C75",
"8  c #AC6975",
"9  c #AF747A",
"0  c #A17A7C",
"q  c #AA7A7D",
"w  c #B5777C",
"e  c #BE7A7F",
"r  c #9D7F80",
"t  c #A07F81",
"y  c #A97E82",
"u  c #B47F80",
"i  c #978183",
"p  c #9E8182",
"a  c #9C8A8A",
"s  c #A58383",
"d  c #AD8384",
"f  c #A88987",
"g  c #AE8688",
"h  c #A48B89",
"j  c #AD8B89",
"k  c #B18786",
"l  c #B88282",
"z  c #B28A86",
"x  c #BB8A86",
"c  c #B38E8B",
"v  c #BD8E89",
"b  c #AC918E",
"n  c #B6918D",
"m  c #B9938E",
"M  c #BE998F",
"N  c #A29495",
"B  c #A99491",
"V  c #BB9590",
"C  c #B39C96",
"Z  c #BE9993",
"A  c #BE9F99",
"S  c #C28886",
"D  c #DD8386",
"F  c #D18F8A",
"G  c #C5918A",
"H  c #CA948D",
"J  c #C1988F",
"K  c #DB958F",
"L  c #C19B94",
"P  c #D59B91",
"I  c #E38C8A",
"U  c #E5908D",
"Y  c #CCA395",
"T  c #C4A29A",
"R  c #C7A89F",
"E  c #DFA195",
"W  c #DCAC9B",
"Q  c #EBA196",
"!  c #ECA498",
"~  c #EFAB9C",
"^  c #F0AE9E",
"/  c #F1B09F",
"(  c #C5A9A0",
")  c #CAABA2",
"_  c #CCB6AD",
"`  c #DFB4A0",
"'  c #E7B5A1",
"]  c #EABCA5",
"[  c #F3B5A2",
"{  c #F5BCA6",
"}  c #F6C0A9",
"|  c #F8C4AA",
" . c #FBCAAE",
".. c #F4C9B4",
"X. c #FBCFB3",
"o. c #FBD0B4",
"O. c #FBD6BA",
"+. c #FBD9BD",
"@. c #FADEC2",
"#. c #FAE2C6",
"$. c #FAE5C9",
"%. c #FAE8CC",
/* pixels */
"6 p p h B B B h r h r = o . o o o o O o + o o o o o + o o + . + + o X X o = r p s p p p s p r s 6 O ",
"V Z Z L T L T Z c r & Y [ - P |  . .$.X.$.#.{ z d {  . .#. .$.$.$.| P - [ Y + 6 c m V m m m V V n = ",
"V V V m V V n r - m |  .X.3 `  . . . . . . . .J n  . . . . . . . . .` 3  . .} m - 6 g d g y n c = o ",
"m V V m V n 0 g ..#.O. .| 3 W  . . . . . . .| m z |  . . . . . . . .W 3 |  .O.#...g s A ( A V V V - ",
"Z Z V Z V p k ..O. .| [ ! ; H ^ [ [ [ ~ [ [ ~ u q ~ [ / ' / [ [ / / F : ! [ |  .O...k r V V Z V L 2 ",
"s j j j s = } O. .| ~ I D % 7 w w 9 9 9 9 9 9 ; % 9 w 9 9 9 9 9 9 9 7 % D U ~ |  .O.} & f j j j d + ",
"1 1 = = @ v  . .| ^ I e 7 O                                         X O > e U ! |  . .v & 1 = = = # ",
"R R Z V + {  . .[ U e $                                             X     $ e U [  . .{ + T A Z V Z ",
"m V V - H  . .} ! e $                                                       O e ! |  . .H = V V V V ",
"V V V o |  . .{ I 9                                                           9 I [  . .| + V m V V ",
"V V V o  . . .[ e O                                                           + e [  . . .o m m V V ",
"V L V o ~  .} Q w                                                               w Q |  .~ o Z Z Z Z ",
"= = = . . . .                                                                               = = = = ",
"s j n o ~  .} Q w                                                               w Q |  .^ o f b s O ",
"V L V o X. . .[ w                                                           . . w [  . .X.. Z Z L 3 ",
"V V V o %. . .[ w                                                           . . w /  . .%.+ m V V - ",
"V m n + #. . .[ w                                                               w [  . .+.+ 2 # # + ",
"Z L Z o O. . .[ w                                                               w [  . .O.. ( b n = ",
"3 6 6 o +. . .[ w                                                               w [  . .+.+ 6 6 3 X ",
"2 5 3 o  . . .[ w                                                               w [  . . .o N a i 5 ",
"L L Z +  . . .[ w   o                                                           w [  . . .o ) R L L ",
"V V c . [  .| ! w                                                               w ~ |  ./ o n m V V ",
"m V m   & < - % O                                                               O % = < -   m m V V ",
"Z Z V o E ] ' K 9                                                               9 K ' ] E o Z Z V V ",
"n j n .  . . .[ w                                                               w [  . . .o b c n n ",
"@ = # o %. . .[ w                                                               w [  . .%.o = = + o ",
"n V V . $. . .[ w                                                               w [  . .$.o V Z V = ",
"V m V + o. . .[ w                                                               w [  . .o.o n n < + ",
"V m m o #. . .[ w                                                               w [  . .#.o m n s + ",
"V m m .  . . .[ w                                                             o w [  . . .o m V L 5 ",
"m A Z +  . . .[ w                                                           X X w /  . . .o Z Z m - ",
"= < = o {  .| ~ w                                                           X o w ~  . .{ o = < & X ",
"C C f . 6 f s 7 %                                                               % 4 s s 0 X j f f j ",
"Z Z Z o G Y Y S >                                                               7 x Y Y G o Z Z Z Z ",
"m m m + }  . .^ w X                                                             w /  . .| . m m m V ",
"V m n . $. . .[ w X X                                                           w [  . .$.+ m V V V ",
"T Z Z + %. . .[ w                                                               w [  . .%.o Z L Z Z ",
"p r r .  . . .[ w                                                               w [  . . .o r r r s ",
"< 2 5 . $. . .[ w   .                                                           w [  . .$.. 2 2 - X ",
"M Z L +  . . .[ w o .                                                         . w [  . . .+ Z Z L < ",
"m m n    . . ./ w . .                                                       . . w [  . . .o M L L 3 ",
"m n M + |  . ./ w                                                               w ^  . .| o s 5 3 + ",
"V V M   x J J l >                                                               > l M J x o B 2 5 @ ",
"j m j + d c z q *   X                                                           * q j c y o Z m c = ",
"# # # + }  .| / w X X                                                       . . w ~  . .{   , , = + ",
"m M m . @. . ./ w                                                           .   w [  . .@.+ _ R A V ",
"m V n + %. .X./ w                                                               w [  . .%.. n m V V ",
"V V n . o. . ./ w                                                               w [  . .o.+ V V V V ",
"V V V + ^  .| Q w   X                                                           w Q |  .~ o m V Z V ",
"V V V . D K I D 8 X X                                                       .   8 D I I I X M m V V "
};
