/* XPM */
static char *aa67de3360224d4e8d1867471c5bbcb5qw9eM3ZEmtzFtylJ[] = {
/* columns rows colors chars-per-pixel */
"50 50 194 2 ",
"   c #2D334C",
".  c #34354D",
"X  c #3A364E",
"o  c #3E394F",
"O  c #3C3550",
"+  c #43374F",
"@  c #49374F",
"#  c #43394F",
"$  c #4B3A4F",
"%  c #523B4E",
"&  c #5C3A4F",
"*  c #493752",
"=  c #443A50",
"-  c #4B3B50",
";  c #533C51",
":  c #5B3C51",
">  c #643E4F",
",  c #643E51",
"<  c #6B3E50",
"1  c #733E52",
"2  c #7A3F51",
"3  c #554252",
"4  c #5C4453",
"5  c #5E4856",
"6  c #66404F",
"7  c #6C414F",
"8  c #72414F",
"9  c #644552",
"0  c #6C4351",
"q  c #654955",
"w  c #6C4A54",
"e  c #694E58",
"r  c #734452",
"t  c #7C4352",
"y  c #734C55",
"u  c #7B4C54",
"i  c #6D515A",
"p  c #755057",
"a  c #7C5157",
"s  c #765259",
"d  c #7C5559",
"f  c #7A595D",
"g  c #7D5E61",
"h  c #84454F",
"j  c #93484E",
"k  c #9C4A4F",
"l  c #854352",
"z  c #8C4551",
"x  c #844D54",
"c  c #8B4D53",
"v  c #934751",
"b  c #914C51",
"n  c #9C4B51",
"m  c #835156",
"M  c #8C5356",
"N  c #83565A",
"B  c #8C5559",
"V  c #85595B",
"C  c #8B5C5D",
"Z  c #925456",
"A  c #955659",
"S  c #945C5B",
"D  c #9A5D5B",
"F  c #A24B4F",
"G  c #AA4C4F",
"H  c #B14E4F",
"J  c #A44951",
"K  c #A45152",
"L  c #AB5252",
"P  c #A45E5C",
"I  c #A95D5C",
"U  c #B45D58",
"Y  c #95635F",
"T  c #9B625E",
"R  c #A3635D",
"E  c #AC645F",
"W  c #B1645E",
"Q  c #BB675F",
"!  c #BB6A5F",
"~  c #8F5F60",
"^  c #836564",
"/  c #8C6363",
"(  c #8E6D69",
")  c #946463",
"_  c #9D6663",
"`  c #9D6964",
"'  c #94766E",
"]  c #94786F",
"[  c #997C71",
"{  c #A26663",
"}  c #A46A64",
"|  c #AC6B63",
" . c #A16F69",
".. c #B36C62",
"X. c #BC6D61",
"o. c #AE7165",
"O. c #A6746B",
"+. c #AE746A",
"@. c #AD7A6F",
"#. c #B57265",
"$. c #BC7365",
"%. c #BD7967",
"&. c #B37269",
"*. c #BC7469",
"=. c #BD7868",
"-. c #A97C71",
";. c #B47E71",
":. c #C26D61",
">. c #C37565",
",. c #C87766",
"<. c #C57867",
"1. c #CA7A67",
"2. c #C2766A",
"3. c #C57C6C",
"4. c #CA7D6A",
"5. c #D37F6E",
"6. c #9B8276",
"7. c #9B8679",
"8. c #9B897D",
"9. c #AE8677",
"0. c #BC8676",
"q. c #B98B79",
"w. c #B6917D",
"e. c #CE806D",
"r. c #C58976",
"t. c #D78974",
"y. c #DC8C76",
"u. c #C5927C",
"i. c #C8937D",
"p. c #D6917A",
"a. c #DD937B",
"s. c #E28C75",
"d. c #E18F78",
"f. c #E2967C",
"g. c #EC9C7F",
"h. c #9C8D81",
"j. c #9C9086",
"k. c #9E958D",
"l. c #9E9891",
"z. c #BCA188",
"x. c #C89B82",
"c. c #D09B81",
"v. c #D99B80",
"b. c #EF9F81",
"n. c #C5A388",
"m. c #CDAC8D",
"M. c #DAA487",
"N. c #D0AC8E",
"B. c #DDA989",
"V. c #CCB192",
"C. c #CDB598",
"Z. c #CEBA9C",
"A. c #D4B898",
"S. c #E7A182",
"D. c #EEA484",
"F. c #EFA887",
"G. c #E4AC8A",
"H. c #EDAD8A",
"J. c #F0A584",
"K. c #F0AA87",
"L. c #E6B18D",
"P. c #EDB28E",
"I. c #EEB690",
"U. c #E6BB94",
"Y. c #EDBC94",
"T. c #F0B690",
"R. c #F1BC94",
"E. c #CFBDA2",
"W. c #D1BFA4",
"Q. c #EEC197",
"!. c #EEC59A",
"~. c #EEC99D",
"^. c #F4C297",
"/. c #F2C399",
"(. c #F1CC9E",
"). c #F9CC9D",
"_. c #CEC1A7",
"`. c #D0C0A6",
"'. c #F2CFA1",
"]. c #FACFA0",
"[. c #F3D1A3",
"{. c #F9D1A1",
"}. c #F9D2A2",
"|. c #FBD4A3",
" X c #FAD6A5",
".X c #FFD9A6",
"XX c #FEDAA7",
"oX c #F4D5AA",
"OX c #FDD7A8",
"+X c #F5D9AD",
"@X c #FDDAAA",
"#X c #F6DDB3",
"$X c #F7DEB5",
"%X c #F7E1BA",
/* pixels */
"n.E.`.n.f w.V.`.E.C.E.C.V.q.s u.E.E.m.E._.V.q.s x.m.W.E.m.-.d x.V._.V.V.x.s 9.N.W.`.Z.N.) [ A._.A.^ ",
"{.).{.{.( P.XX{.].{.].].OXL.V R.{.{.{.{.{.OXG.V Q.{.].oXOXc.~ ].oX[.{.{.^.V B.OX].}.{.XX&.n.@X].XX8.",
"U.~.[.U./ a.Y./.!././.!.Y.p.~ p.Y.'.Q.Q./.Y.t.V v.Y./.!.I.3.~ D.^.Q.^.U.J.S r.Y././.Q.P.{ h.].~.).' ",
"y.F.G.f.N =.e.3.3.3.3.3.3.*.s 2.3.3.3.3.3.4.=.a 2.4.3.3.3...N 4.4.3.3.r.2.d &.3.3.3.3.4.~ +.F.K.S.C ",
"B C / V $ X o = - - - - $ $ # 3 - - - - - = X X = * - - - = O o # * - - $ # $ $ - = = o o w ~ C C 9 ",
"u.u.3.C X , 6 - & v j t ; h j h ; t v z : - > , * , v v 1 * 9 9 ; % l j z % t j z : - 0 - 3 $.0.c.g ",
").].F.} X ; r 7 < < : r 7 : 6 8 < 1 : < 0 < , t 0 0 , , r < : 0 8 0 8 & 7 < 6 3 r < 1 < o q y./.@X8.",
"oX(.I.{ . - n ! >.D < X.,.u x $.*.X.< D ,.R , ..$.>.M r >.:.r A $.>.W > W <.D 7 $.*.U 1   4 a.~.OXh.",
"#X'.I.{ X : r y e a w d q y p d q p w y w w w d w y s p p w w p d q d q d q w w V w w , = 4 a.~.XXj.",
"+X~.I._ $ J L A u 1.4.E 0 <.e.X.8 ..e.1.y _ e.4.M M 1.4.T y 1.<...0 >.e.>.w ..e.1.u Z H t 4 a.!.OXh.",
"].].J.} X : r w q s s d q p p d q p w N w y y d q w s p d w s s p 9 d i N w p y d q 0 0 + q f.R.@X6.",
"0.0.*./ . @ E 1.e.R 7 R ..7 S 4.e.<.w Z #.Z 0 >.3.4.D 7 E E 7 R e.<.$.6 Z #.x y <.3.2.t   3 ..;.u.f ",
") ) ) y X @ y d d p 3 o o o 9 d p p 3 o # X 3 d p d q o # o o w d s s $ o # o 3 N d a 9 X - S ) _ e ",
"/.(.b.{ @ J K M u $.<.m . o X .   . X o o o . . . . X o o o o . . . . o o X + ! %.u c J 1 4 s.P.|.[ ",
"].'.I._ + r t y 6 C C 9 X o # o 3 o o o o o o o o # o o o o o # # o o o o o + a C q y t : 4 a.~.OXk.",
"oX(.I.{   * R #.#.Y 7 $.m . o o . o o o o o o o o o o o o o o o o o o # . M R 0 #.o.! 0   4 a.~.@Xk.",
" X'.Q.R   3 M Y T a 9 T w X o o X o o o o o o o o o o o o o o o o o o o X y M 9 T Y Y 6   q a.~.}.6.",
"[.'.P.` o b b x w } o.D $ X o o X o o o o o o o o o o o o o o o o o o o . $ T } } y u j 0 4 a.~.@Xh.",
"L.U.s.R # h b a w R } D # X o o o o o o o o o o o o o o o o o o o o o o X $ Y } R y u j > 4 a.!.@Xl.",
"V N B w . # M T T V 9 T w X o o o o o o o o o o o o o o o o o o o o o o . d m 9 T Y T 6   5 a.!.OXk.",
"M.B.t.T   # D o.0.S 6 $.a X o o o o o o o o o o o o o o o o o o o o o # . m T w ..o.W 0   q a.~.XX8.",
"'.'.H.} # 8 h y 6 M C m # o o o o o o o o o X . o o o o o o o o o o o o o + N C C q y t % 5 a.~.OXh.",
"#X(.T._ % k K M 7 e.e.R # X o o o o o o o o o 3 o o . o o o o o o o o o o + W %.$.d c F 8 4 s.H.|.[ ",
"+X(.P.} . $ y d d p 9 d 4 o o o o o o o o o o o o o 3 o o o o o o o o o X 9 p 6 V d m 6 o $ Y ) ) e ",
"(.{.H.} . @ E ,.e.D y e.M . o o o o o o o o o o o o o o o o o o o o o o . S R y 2.<.2.r   4 ..0.i.g ",
"B.B.t._ X : r w q p w u $ X o o o o o o o o o o o o o o o o o o o o o o X $ s w d w 0 < + 5 d./.@X6.",
"N V / 9 ; J L A u e.e.! $ X o o o o o o o o o o o o o o o o o o o o o o o # ! 4.1.p Z H 2 4 a./.@Xj.",
"L.L.y._ X ; r y w p q u % X o o o o o o o o . 3 o o o o o o o o o o o o X 3 y w d e y 9 + 4 a.!.|.k.",
"+X'.H.{ . @ W 3.e.R y e.C . o o o o o o o o o o o o o o o o o o o o o # . S E y ,.3.,.r   5 a.!.XX7.",
"[.'.T.{ . - r a p p 9 a 3 o o o o o o o o o o o o o o o o o o o o o o o X 4 p 9 N p y 9 O 4 t.G.).] ",
"+X(.T._ $ J K A y <.e...3 . o o o o o o o o o o o o o o o o o o o o o o o $ ..3.,.a M G t * V C C q ",
"#X(.T.{ o 0 8 y 9 N d a # X o o o o o o o o o o o o o o o o o o o o o o o # a N V 9 r 8 ; 3 1.r.M./ ",
"$X(.P.{ . # P *.%.D 7 >.M . # o o o o o o o o o o # o o o o o o o X o o . B R 8 %.#.#.r   q a.Q.XX6.",
"(.'.T.{ . @ x C ~ a 4 Y q . o o o o o o o o o o o o o o o o o o 3 . o o . w N 9 Y C M 9 . 4 a.~.OXj.",
"+X(.T._ $ v b M y #.o.R # X o o o o o o o o o o o o o o o o o o o o o o X # R o.| y u k 7 4 a.~.OXh.",
"$X(.T._ + h c u 0 T T Y $ o o o o o o o o o o o o o o o o o o o o o o o . 3 T T T w u j 6 4 a.~.{.8.",
"{.{.J.| . + B } R M X . o # o o o o o o o # o o o o # o o o o o o o o o o o   9 R T T 0   q y.^.XX6.",
";.;.&.N . = A | o.T o o X . . . X X X X X . . . X X . . X X . . . o X . X o   9 | } | 0   3 | +.0.f ",
"` ` _ s + 2 l u $ 3 3 $ 4 Y Y Y 3 % 3 3 $ M Y T p $ 3 3 3 6 T Y ~ 3 3 3 3 % M Y Y w y h : 3 T `  .i ",
").'.J.} @ n n B q R #.Z 6 #.#.E 6 S o.R 6 Y %.#.m r ..o.u w ! #.R 6 T | T 6 R %.$.y c F 0 5 y.P.OX[ ",
"oX'.I._ . - u V C a 6 C C 9 w C N C 9 d C a 4 V V C s w C V 9 y C V C 4 V C y 9 C N N 9 . q a.~.{.h.",
"#X(.T.{ . @ I %.<.T 8 $.e.a M %.*.$.0 R e.E 7 $.*.1.B u <.2.y D %.%.! 7 | 3.D y $.=.>.r   4 a.~.XXk.",
"'.'.T.} o > y y 9 N d p 9 p d V 9 a d d 4 w d N q 0 d d y 9 p N d 4 N s N 4 y d N q y 7 * 4 a.~.|.8.",
"oX'.H.{ @ J G M y ! X.E 6 ! X.E , P X.Q 0 A ,.:.x x :.:.Z 0 X.X.P 6 W ! Q 7 I X.! y x H t 5 t.!.OX8.",
"G.G.y._ . ; 1 < < < % - # $ > 7 , < : < < , ; % - * $ & 0 < : > 7 6 < % - * @ & 1 , < , O 3 5.v.R.( ",
"N N ~ y = . $ % $ @ . . X . # % % ; O $ % @ . . . . . # % ; o @ % % % X . . . o $ ; ; + . 4 V V V 4 ",
"4.p.p.e.s _ } _ _ { | s V o.R ` _ } C y } ` } } | N p | _ ` } ` _ } p m | } } } ` { _ | m { a.a.y.N ",
"H.'.'.U.C y.P.T.I.I.b._ *.F.T.T.R.K.2.) g.I.I.T.D.+.} J.T.T.I.I.R.J. .| D.I.I.T.T.T.T.D.} 9.].'.).( ",
"'.(./.'.( G.[.(.~.'.(.) q.{.'.~.'.{.q.) /.'.(.(.{.@.O.).(.(.'.'.(.].O.O.].'.'.(.'.(.'.).O.z.{.Q.}.7.",
"Y.#X#X~.^ G.{.[.#X[.^._ 0.].'.+X+X).r./ /.oX%X[.).@.` ).[.$X[.[.$X].O.O.).'.oX$X].#XoX).O.w.@X#X}.] "
};
